<svg width="36" height="36" viewBox="0 0 36 36" fill="none" xmlns="http://www.w3.org/2000/svg">
<path d="M30.75 18.75H26.1915C25.4958 18.75 25.1479 18.75 24.886 18.9388C24.6242 19.1275 24.5142 19.4575 24.2942 20.1175L23.7058 21.8825C23.4858 22.5425 23.3758 22.8725 23.114 23.0612C22.8521 23.25 22.5042 23.25 21.8085 23.25H14.1915C13.4958 23.25 13.1479 23.25 12.886 23.0612C12.6242 22.8725 12.5142 22.5425 12.2942 21.8825L11.7058 20.1175C11.4858 19.4575 11.3758 19.1275 11.114 18.9388C10.8521 18.75 10.5042 18.75 9.80848 18.75H5.25" stroke="#8A9099"/>
<path d="M14.25 14.25L18 18M18 18L21.75 14.25M18 18L18 7.5" stroke="#8A9099"/>
<path d="M9.75 12.75L6.53246 14.895C6.06358 15.2076 5.82914 15.3639 5.65942 15.5704C5.50917 15.7532 5.39643 15.9639 5.32767 16.1903C5.25 16.446 5.25 16.7278 5.25 17.2913V24.87C5.25 25.8781 5.25 26.3821 5.44619 26.7672C5.61876 27.1059 5.89413 27.3812 6.23282 27.5538C6.61786 27.75 7.12191 27.75 8.13 27.75H27.87C28.8781 27.75 29.3821 27.75 29.7672 27.5538C30.1059 27.3812 30.3812 27.1059 30.5538 26.7672C30.75 26.3821 30.75 25.8781 30.75 24.87V17.2913C30.75 16.7278 30.75 16.446 30.6723 16.1903C30.6036 15.9639 30.4908 15.7532 30.3406 15.5704C30.1709 15.3639 29.9364 15.2076 29.4675 14.895L26.25 12.75" stroke="#8A9099" stroke-linecap="round"/>
</svg>
