<svg width="24" height="24" viewBox="0 0 24 24" fill="none" xmlns="http://www.w3.org/2000/svg">
<path fill-rule="evenodd" clip-rule="evenodd" d="M6.45389 13.0105C6.3523 13.001 6.2099 13 5.92963 13H3V11H5.92963C5.94064 11 5.95165 11 5.96268 11C6.19589 11 6.43365 10.9999 6.63957 11.0191C6.87584 11.0411 7.14 11.0929 7.40853 11.2367C7.67706 11.3804 7.86669 11.5714 8.01608 11.7558C8.14628 11.9165 8.27813 12.1143 8.40745 12.3084C8.41357 12.3176 8.41968 12.3268 8.42578 12.3359L9.23832 13.5547C9.39378 13.7879 9.4736 13.9058 9.53784 13.9851C9.53893 13.9865 9.54 13.9878 9.54105 13.9891C9.54269 13.9892 9.54437 13.9894 9.54611 13.9895C9.6477 13.999 9.7901 14 10.0704 14H13.9296C14.2099 14 14.3523 13.999 14.4539 13.9895C14.4556 13.9894 14.4573 13.9892 14.459 13.9891C14.46 13.9878 14.4611 13.9865 14.4622 13.9851C14.5264 13.9058 14.6062 13.7879 14.7617 13.5547L15.5742 12.3359C15.5803 12.3268 15.5864 12.3176 15.5925 12.3084C15.7219 12.1144 15.8537 11.9165 15.9839 11.7558C16.1333 11.5714 16.3229 11.3804 16.5915 11.2367C16.86 11.0929 17.1242 11.0411 17.3604 11.0191C17.5664 10.9999 17.8041 11 18.0373 11L21 11V13H18.0704C17.7901 13 17.6477 13.001 17.5461 13.0105C17.5444 13.0106 17.5427 13.0108 17.541 13.011C17.54 13.0122 17.5389 13.0136 17.5378 13.0149C17.4736 13.0942 17.3938 13.2121 17.2383 13.4453L16.4075 14.6916C16.2781 14.8857 16.1463 15.0835 16.0161 15.2442C15.8667 15.4286 15.6771 15.6196 15.4085 15.7634C15.14 15.9071 14.8758 15.9589 14.6396 15.9809C14.4336 16.0001 14.1959 16.0001 13.9627 16L10.0704 16C10.0594 16 10.0483 16 10.0373 16C9.80411 16.0001 9.56636 16.0001 9.36043 15.9809C9.12416 15.9589 8.86 15.9071 8.59147 15.7634C8.32294 15.6196 8.13331 15.4286 7.98392 15.2442C7.85372 15.0835 7.72187 14.8857 7.59255 14.6916C7.58643 14.6824 7.58032 14.6733 7.57422 14.6641L6.76168 13.4453C6.60622 13.2121 6.5264 13.0942 6.46216 13.0149C6.46107 13.0136 6.46 13.0122 6.45895 13.011C6.45731 13.0108 6.45563 13.0106 6.45389 13.0105Z" fill="#33363F"/>
<path fill-rule="evenodd" clip-rule="evenodd" d="M7.84912 7.24068L9.1507 8.7592L10.9999 7.17416L10.9999 11.9999L12.9999 11.9999L12.9999 7.17416L14.8491 8.7592L16.1507 7.24068L11.9999 3.68286L7.84912 7.24068Z" fill="#33363F"/>
<path fill-rule="evenodd" clip-rule="evenodd" d="M5.70711 8.29289C6.09763 8.68342 6.09763 9.31658 5.70711 9.70711L4 11.4142V17C4 17.5523 4.44772 18 5 18H19C19.5523 18 20 17.5523 20 17V11.4142L18.2929 9.70711C17.9024 9.31658 17.9024 8.68342 18.2929 8.29289C18.6834 7.90237 19.3166 7.90237 19.7071 8.29289L21.4142 10C21.7893 10.3751 22 10.8838 22 11.4142V17C22 18.6569 20.6569 20 19 20H5C3.34315 20 2 18.6569 2 17V11.4142C2 10.8838 2.21071 10.3751 2.58579 10L4.29289 8.29289C4.68342 7.90237 5.31658 7.90237 5.70711 8.29289Z" fill="#33363F"/>
</svg>
