<svg width="20" height="20" viewBox="0 0 20 20" fill="none" xmlns="http://www.w3.org/2000/svg">
<g clip-path="url(#clip0_1648_7391)">
<path d="M13.8394 -0.000274658C14.8486 -0.000274658 15.7854 0.506731 16.3387 1.34029L16.4441 1.51131L18.4375 4.99973H19.6C19.7933 4.99973 19.9546 5.13684 19.9919 5.31911L20 5.39972V5.8751C20 6.20551 19.7977 6.49775 19.4975 6.61778L19.3703 6.65713C19.745 7.43509 19.912 8.29729 19.8544 9.15953L19.8269 9.44683L19.1018 15.2478C18.9833 16.196 18.2134 16.92 17.2751 16.9936L17.1172 16.9997H16C14.9456 16.9997 14.0818 16.1839 14.0055 15.149L14 14.9997H6C6 16.0541 5.18412 16.9179 4.14926 16.9942L4 16.9997H2.88278C1.92723 16.9997 1.11333 16.3256 0.923931 15.4037L0.89823 15.2478L0.1731 9.44683C0.065451 8.58562 0.184205 7.71509 0.512501 6.91945L0.62967 6.65713L0.60597 6.65123C0.285453 6.57113 0.0510309 6.30392 0.00735164 5.98364L0 5.8751L0 5.39972C0 5.20643 0.137116 5.04515 0.319387 5.00785L0.4 4.99973H1.56253L3.55592 1.51131C4.05666 0.635005 4.96161 0.0732308 5.95985 0.00643206L6.16065 -0.000274658L13.8394 -0.000274658ZM17.7592 8.03522C17.2657 8.57393 16.5719 8.93993 15.7592 8.99304L15.5536 8.99973H4.44636C3.54512 8.99973 2.77543 8.61882 2.24076 8.03522C2.15842 8.33626 2.12328 8.6494 2.13761 8.96332L2.15766 9.19873L2.88278 14.9997H4V13.9997C4 13.4869 4.38604 13.0642 4.88338 13.0065L5 12.9997H15C15.5128 12.9997 15.9355 13.3858 15.9933 13.8831L16 13.9997V14.9997L17.1172 14.9997L17.8423 9.19873C17.8913 8.80673 17.8622 8.41152 17.7592 8.03522ZM3.73757 9.89803L6.48023 11.379C6.85325 11.5805 6.69778 12.1476 6.27418 12.1307L3.96003 12.0381C3.42372 12.0166 3 11.5756 3 11.0389V10.3379C3 9.95932 3.40444 9.71813 3.73757 9.89803ZM17 10.3379V11.0389C17 11.5756 16.5763 12.0166 16.04 12.0381L13.7258 12.1307C13.3022 12.1476 13.1467 11.5805 13.5198 11.379L16.2624 9.89803C16.5956 9.71813 17 9.95932 17 10.3379ZM13.8394 1.99973L6.16065 1.99973C5.80179 1.99973 5.47044 2.19202 5.2924 2.50359L3.57812 5.50359C3.19756 6.17023 3.67868 6.99973 4.44636 6.99973L15.5536 6.99973C16.3215 6.99973 16.8028 6.17023 16.4219 5.50359L14.7076 2.50359C14.5296 2.19202 14.1982 1.99973 13.8394 1.99973Z" fill="white"/>
</g>
<defs>
<clipPath id="clip0_1648_7391">
<rect width="20" height="20" fill="white"/>
</clipPath>
</defs>
</svg>
