<svg width="27" height="26" viewBox="0 0 27 26" xmlns="http://www.w3.org/2000/svg">
    <path
        d="M4.73992 16.9208C4.73992 16.2653 5.27257 15.7355 5.9236 15.7355C6.5812 15.7355 7.11385 16.2653 7.11385 16.9274C7.11385 17.5829 6.58119 18.1127 5.93017 18.1127C5.27257 18.1127 4.73992 17.583 4.73992 16.9208ZM9.24447 6.09443C8.97488 6.09443 8.81705 5.94214 8.81705 5.68389C8.81705 5.42565 8.98142 5.26672 9.24447 5.26672C9.97437 5.26672 10.7043 5.26672 11.4277 5.26672C11.625 5.26672 11.7762 5.37267 11.8289 5.53821C11.888 5.717 11.8419 5.89579 11.7038 6.01497C11.625 6.08119 11.5329 6.10106 11.4342 6.10106C11.066 6.10106 10.6977 6.10106 10.3229 6.10106C10.1388 6.10106 9.96128 6.10106 9.7771 6.10106C9.59301 6.10106 9.42856 6.09443 9.24447 6.09443ZM4.87143 4.60456C4.34536 4.75024 3.88504 5.27335 3.86531 5.78321C3.82585 6.61754 3.79955 7.45186 3.76667 8.2862C3.74694 8.83578 3.72721 10.5905 3.70749 11.1401V11.1534H3.11565C2.70794 11.1534 2.37256 11.491 2.37256 11.9016V13.398C2.37256 13.8086 2.70794 14.1464 3.11565 14.1464H3.60227C3.59569 14.345 3.58912 14.5503 3.58254 14.7489C3.54966 15.6494 3.51021 16.55 3.49048 17.4506C3.4839 18.02 3.66146 18.5431 4.00999 19.0066C4.06259 19.0795 4.08889 19.1457 4.08889 19.2384C4.08889 19.7747 4.08889 20.311 4.08889 20.8475C4.08889 21.0593 4.18095 21.2116 4.35193 21.3241C4.49003 21.4103 4.6347 21.45 4.7991 21.45C5.18708 21.45 5.58164 21.45 5.96962 21.45C6.10114 21.45 6.23266 21.4235 6.35103 21.3573C6.56804 21.2513 6.69298 21.0792 6.6864 20.8275C6.67983 20.6356 6.6864 20.4369 6.6864 20.2448C6.6864 20.0528 6.68641 20.0528 6.87711 20.0528H8.6197C9.17214 20.0528 9.72449 20.0528 10.2769 20.0528L10.2835 17.0201C10.2835 16.8678 10.2769 16.7221 10.2703 16.5699C10.2638 16.3513 10.2506 16.1328 10.2571 15.9077C9.85606 15.6891 9.6061 15.272 9.59301 14.782C9.15897 14.7754 8.72492 14.7555 8.2975 14.729C7.344 14.6694 6.39049 14.5569 5.45012 14.398C5.00953 14.3251 4.71361 13.9808 4.72676 13.5306C4.73991 12.6763 4.76621 11.8288 4.79252 10.9746C4.80568 10.564 4.81883 8.94173 4.83198 8.53117C4.83856 8.25305 4.84513 7.97496 4.85171 7.69685C4.85828 7.45848 5.04899 7.24659 5.28573 7.21349C5.85126 7.12741 6.42336 7.0943 6.99547 7.06781C7.92269 7.02146 8.85649 7.01483 9.78373 6.99496C10.6715 6.98172 11.5526 6.99498 12.4404 7.00822C13.1769 7.02146 13.92 7.04794 14.6565 7.10754C14.9327 7.13403 15.2088 7.16714 15.4785 7.21349C15.6955 7.25321 15.873 7.46511 15.8796 7.68362C15.8994 8.22656 15.9125 9.42508 15.9257 9.96808H16.9712C16.9647 9.68996 16.9581 8.76956 16.9515 8.59081C16.9186 7.74321 16.8923 6.89564 16.8594 6.04807C16.8529 5.78321 16.82 5.52498 16.6819 5.29322C16.3926 4.80322 15.9651 4.55158 15.3996 4.55158C13.7227 4.55158 12.0458 4.55158 10.369 4.55158C8.7052 4.55158 7.03493 4.55158 5.3712 4.55158C5.1805 4.54496 5.02268 4.55822 4.87143 4.60456Z" />
    <path
        d="M12.6706 17.2253C12.6706 16.6692 13.1177 16.2189 13.6767 16.2189C14.2291 16.2189 14.6828 16.6692 14.6828 17.2253C14.6828 17.7816 14.2357 18.2384 13.6767 18.2384C13.1243 18.2319 12.6706 17.7816 12.6706 17.2253ZM19.9567 17.2253C19.9567 16.6692 20.4039 16.2189 20.9629 16.2189C21.5218 16.2189 21.9624 16.6692 21.9624 17.2253C21.9624 17.7816 21.5153 18.2384 20.9629 18.2384C20.4105 18.2384 19.9567 17.7816 19.9567 17.2253ZM13.7096 12.1201H20.9234L21.8638 14.8681H12.7626L13.7096 12.1201ZM14.1896 11.054C14.0187 11.054 13.8542 11.0672 13.6964 11.0805C12.8678 11.1798 12.7561 11.6566 12.493 12.4114C12.3352 12.8684 12.1905 13.2723 12.0524 13.6762L11.0595 13.7291C10.895 13.7424 10.7833 13.8086 10.7569 13.9543L10.6583 14.6893C10.632 14.8747 10.7241 14.9409 10.8556 14.9607L11.5066 15.0866C11.4277 15.2388 11.362 15.3779 11.3422 15.5567C11.283 16.0004 11.3422 16.5102 11.3422 17.0003V20.0329C11.3422 20.0329 11.3488 20.5362 11.3422 20.7812C11.3291 21.1586 11.5921 21.3374 11.8552 21.4036C11.9209 21.4234 11.9933 21.4301 12.059 21.4301C12.4469 21.4301 12.8416 21.4301 13.2295 21.4301C13.4268 21.4301 13.6043 21.3705 13.7556 21.2447C13.8674 21.152 13.9332 21.0328 13.9265 20.8805C13.9265 20.6421 13.9332 20.3971 13.9265 20.1587C13.92 20.0594 13.9594 20.0329 14.0515 20.0329H20.5749C20.667 20.0329 20.7064 20.0594 20.6999 20.1587C20.6932 20.3971 20.6999 20.6421 20.6999 20.8805C20.6999 21.0328 20.7656 21.1454 20.8708 21.2447C21.0221 21.3705 21.1996 21.4301 21.3969 21.4301C21.7849 21.4301 22.1795 21.4301 22.5674 21.4301C22.6398 21.4301 22.7055 21.4234 22.7713 21.4036C23.0278 21.3374 23.2908 21.1586 23.2842 20.7812C23.2776 20.5295 23.2842 20.0329 23.2842 20.0329V17.0003C23.2842 16.5102 23.3434 16.0004 23.2842 15.5567C23.2579 15.3779 23.1921 15.2388 23.1198 15.0866L23.7708 14.9607C23.9023 14.9409 23.9944 14.8747 23.9681 14.6893L23.8694 13.9543C23.8432 13.8086 23.7314 13.7424 23.5669 13.7291L22.574 13.6762C22.4359 13.2789 22.2912 12.8684 22.1334 12.4114C21.8704 11.6566 21.7586 11.1864 20.93 11.0805C20.7722 11.0606 20.6077 11.054 20.4368 11.054H14.1896Z" />
</svg>