<svg width="30" height="30" viewBox="0 0 30 30" fill="none" xmlns="http://www.w3.org/2000/svg">
<mask id="mask0_1538_14808" style="mask-type:alpha" maskUnits="userSpaceOnUse" x="0" y="0" width="30" height="30">
<rect width="30" height="30" rx="10" fill="#C4C4C4"/>
</mask>
<g mask="url(#mask0_1538_14808)">
<rect width="30" height="30" fill="#F8F8F8"/>
</g>
<path fill-rule="evenodd" clip-rule="evenodd" d="M18.6865 19.609C18.941 19.8636 19.3537 19.8636 19.6082 19.609C19.8629 19.3545 19.8629 18.9417 19.6082 18.6872L15.921 14.9999L19.6083 11.3127C19.8629 11.0581 19.8629 10.6454 19.6083 10.3909C19.3537 10.1363 18.941 10.1363 18.6865 10.3909L14.9992 14.0781L11.3119 10.3909C11.0574 10.1363 10.6447 10.1363 10.3901 10.3909C10.1356 10.6454 10.1356 11.0581 10.3901 11.3127L14.0774 14.9999L10.3901 18.6872C10.1356 18.9417 10.1356 19.3544 10.3901 19.609C10.6447 19.8636 11.0574 19.8636 11.312 19.609L14.9992 15.9218L18.6865 19.609Z" fill="#3F434A"/>
</svg>
