<svg width="20" height="20" viewBox="0 0 20 20" fill="none" xmlns="http://www.w3.org/2000/svg">
<g id="Compass">
<path id="Vector 26" d="M8.45562 8.98766C8.43075 8.42051 8.43018 7.82391 8.43945 7.29677C8.90059 7.55232 9.41699 7.85111 9.89571 8.15622C10.277 8.39924 10.618 8.63591 10.8825 8.84929C11.0144 8.95567 11.1173 9.04831 11.1927 9.12562C11.2299 9.16377 11.2569 9.19453 11.2755 9.21785C11.2928 9.23951 11.2993 9.25024 11.2993 9.25023C11.2993 9.25023 11.2993 9.25012 11.2991 9.2499C11.299 9.24968 11.2989 9.24957 11.2989 9.24957C11.2989 9.24957 11.305 9.26059 11.3151 9.2864C11.3259 9.31418 11.3391 9.35288 11.3536 9.40418C11.3828 9.50814 11.4116 9.6436 11.4378 9.81101C11.4903 10.1468 11.5248 10.5604 11.5446 11.0121C11.5694 11.5793 11.57 12.1759 11.5608 12.703C11.0996 12.4475 10.5832 12.1487 10.1045 11.8436C9.7232 11.6006 9.38221 11.3639 9.11769 11.1505C8.9858 11.0441 8.88287 10.9515 8.80746 10.8742C8.77025 10.836 8.74333 10.8053 8.72471 10.7819C8.70914 10.7625 8.7023 10.7518 8.70107 10.7499C8.70001 10.7479 8.69422 10.7366 8.68513 10.7134C8.67425 10.6856 8.66107 10.6469 8.64664 10.5956C8.61739 10.4917 8.58862 10.3562 8.56244 10.1888C8.50991 9.85301 8.47544 9.43937 8.45562 8.98766Z" stroke="#8A9099" stroke-width="2"/>
<circle id="Ellipse 47" cx="10" cy="10" r="7.5" stroke="#8A9099" stroke-width="2"/>
</g>
</svg>
