<svg width="16" height="16" viewBox="0 0 16 16" fill="none" xmlns="http://www.w3.org/2000/svg">
<path fill-rule="evenodd" clip-rule="evenodd" d="M6.05002 1.70503C6.1813 1.57375 6.35935 1.5 6.545 1.5H9.445C9.63065 1.5 9.8087 1.57375 9.93997 1.70503C10.0712 1.8363 10.145 2.01435 10.145 2.2V2.9L5.845 2.89999V2.2C5.845 2.01435 5.91875 1.8363 6.05002 1.70503ZM4.345 2.89999V2.2C4.345 1.61652 4.57678 1.05694 4.98936 0.644365C5.40194 0.231785 5.96152 0 6.545 0H9.445C10.0285 0 10.5881 0.231785 11.0006 0.644365C11.4132 1.05694 11.645 1.61652 11.645 2.2V2.9L14.52 2.89999C14.9342 2.89999 15.27 3.23578 15.27 3.64999C15.27 4.06421 14.9342 4.39999 14.52 4.39999H13.82V13.8C13.82 14.3835 13.5882 14.9431 13.1756 15.3556C12.7631 15.7682 12.2035 16 11.62 16H4.37C3.78652 16 3.22694 15.7682 2.81436 15.3556C2.40178 14.9431 2.17 14.3835 2.17 13.8V4.39999H1.47C1.05579 4.39999 0.720001 4.06421 0.720001 3.64999C0.720001 3.23578 1.05579 2.89999 1.47 2.89999H4.345ZM3.67 13.8V4.4H12.32V13.8C12.32 13.9857 12.2462 14.1637 12.115 14.295C11.9837 14.4263 11.8056 14.5 11.62 14.5H4.37C4.18435 14.5 4.0063 14.4263 3.87502 14.295C3.74375 14.1637 3.67 13.9857 3.67 13.8ZM6.54501 6.52502C6.95923 6.52502 7.29501 6.86081 7.29501 7.27502V11.625C7.29501 12.0392 6.95923 12.375 6.54501 12.375C6.1308 12.375 5.79501 12.0392 5.79501 11.625V7.27502C5.79501 6.86081 6.1308 6.52502 6.54501 6.52502ZM10.195 7.27502C10.195 6.86081 9.85919 6.52502 9.44498 6.52502C9.03076 6.52502 8.69498 6.86081 8.69498 7.27502V11.625C8.69498 12.0392 9.03076 12.375 9.44498 12.375C9.85919 12.375 10.195 12.0392 10.195 11.625V7.27502Z" fill="#8A9099"/>
</svg>
