<svg width="30" height="30" viewBox="0 0 30 30" fill="none" xmlns="http://www.w3.org/2000/svg">
<mask id="mask0_3383_10977" style="mask-type:alpha" maskUnits="userSpaceOnUse" x="0" y="0" width="30" height="30">
<rect x="0.5" y="0.5" width="29" height="29" rx="14.5" fill="white" stroke="black"/>
</mask>
<g mask="url(#mask0_3383_10977)">
<rect x="0.5" y="0.5" width="29" height="29" rx="14.5" fill="white"/>
<rect x="0.5" y="0.5" width="29" height="29" rx="14.5" stroke="black"/>
<rect width="30" height="30" fill="#F8F8F8"/>
</g>
<path d="M15 17L14.6464 17.3536L15 17.7071L15.3536 17.3536L15 17ZM15.5 8C15.5 7.72386 15.2761 7.5 15 7.5C14.7239 7.5 14.5 7.72386 14.5 8L15.5 8ZM9.64645 12.3536L14.6464 17.3536L15.3536 16.6464L10.3536 11.6464L9.64645 12.3536ZM15.3536 17.3536L20.3536 12.3536L19.6464 11.6464L14.6464 16.6464L15.3536 17.3536ZM15.5 17L15.5 8L14.5 8L14.5 17L15.5 17Z" fill="#222222"/>
<path d="M8 19L8 20C8 21.1046 8.89543 22 10 22L20 22C21.1046 22 22 21.1046 22 20V19" stroke="#222222"/>
</svg>
