<svg width="12" height="10" viewBox="0 0 12 10" fill="none" xmlns="http://www.w3.org/2000/svg">
<path fill-rule="evenodd" clip-rule="evenodd" d="M0.0172262 3.15353C-8.54492e-10 3.56172 0 4.05378 0 4.66667C0 6.22117 0 6.99842 0.281077 7.60119C0.579153 8.24041 1.09292 8.75418 1.73215 9.05226C2.33492 9.33333 3.11217 9.33333 4.66667 9.33333H7.33333C8.88783 9.33333 9.66508 9.33333 10.2679 9.05226C10.9071 8.75418 11.4208 8.24041 11.7189 7.60119C12 6.99842 12 6.22117 12 4.66667C12 4.05378 12 3.56172 11.9828 3.15353L6.97129 5.93769C6.36724 6.27327 5.63276 6.27327 5.02871 5.93769L0.0172262 3.15353ZM0.605634 1.1925L6 4.18937L11.3944 1.1925C11.1009 0.803722 10.7151 0.489614 10.2679 0.281077C9.66508 0 8.88783 0 7.33333 0H4.66667C3.11217 0 2.33492 0 1.73215 0.281077C1.28494 0.489614 0.899132 0.803723 0.605634 1.1925Z" fill="#8A9099"/>
</svg>
