<svg width="31" height="40" viewBox="0 0 31 40" fill="none" xmlns="http://www.w3.org/2000/svg">
<path fill-rule="evenodd" clip-rule="evenodd" d="M2.49998 0H21.7412L30.9999 9.215V37.5C30.9999 38.8812 29.88 40 28.4999 40H2.49998C1.11994 40 0 38.8812 0 37.5V2.49998C0 1.11877 1.12007 0 2.49998 0Z" fill="white"/>
<path d="M2.49998 0.5H21.5348L30.4999 9.4228V37.5C30.4999 38.6049 29.604 39.5 28.4999 39.5H2.49998C1.39594 39.5 0.5 38.6049 0.5 37.5V2.49998C0.5 1.39508 1.39604 0.5 2.49998 0.5Z" stroke="#E8E9EB"/>
<path d="M30.5001 9.5H23.7294C22.4987 9.5 21.5 8.50231 21.5 7.27286V0.5" stroke="#E8E9EB"/>
<path d="M19.25 16.5H15.25V23.5H19.25C19.3882 23.5 19.5 23.3882 19.5 23.25V16.75C19.5 16.6118 19.3882 16.5 19.25 16.5Z" fill="#4CAF50"/>
<path d="M17 17.75H18.75V18.5H17V17.75ZM17 20.25H18.75V21H17V20.25ZM17 21.5H18.75V22.25H17V21.5ZM17 19H18.75V19.75H17V19ZM15.25 17.75H16.5V18.5H15.25V17.75ZM15.25 20.25H16.5V21H15.25V20.25ZM15.25 21.5H16.5V22.25H15.25V21.5ZM15.25 19H16.5V19.75H15.25V19Z" fill="white"/>
<path d="M15.75 24.5L10.5 23.5V16.5L15.75 15.5V24.5Z" fill="#2E7D32"/>
<path d="M13.7831 21.75L13.1804 20.6097C13.1574 20.567 13.1339 20.489 13.1094 20.3752H13.1001C13.0886 20.429 13.0616 20.5105 13.0191 20.62L12.4139 21.75H11.4746L12.5901 19.9998L11.5694 18.25H12.5286L13.0289 19.299C13.0679 19.3817 13.1029 19.4803 13.1339 19.5938H13.1439C13.1634 19.526 13.1999 19.4238 13.2536 19.2888L13.8101 18.25H14.6889L13.6391 19.9847L14.7181 21.7495H13.7831V21.75Z" fill="white"/>
</svg>
