<svg width="23" height="20" viewBox="0 0 23 20" fill="none" xmlns="http://www.w3.org/2000/svg">
    <path fill-rule="evenodd" clip-rule="evenodd"
        d="M3.3302 12.5153C2.85922 12.5153 2.47742 12.8569 2.47742 13.2783C2.47742 13.6997 2.85922 14.0414 3.3302 14.0414H9.74187C10.2128 14.0414 10.5946 13.6997 10.5946 13.2783C10.5946 12.8569 10.2128 12.5153 9.74187 12.5153H3.3302ZM19.8165 14.0414H14.258V15.737C14.258 16.1584 13.8762 16.5 13.4052 16.5C12.9343 16.5 12.5525 16.1584 12.5525 15.737V13.3024C12.5522 13.2944 12.552 13.2864 12.552 13.2783C12.552 13.2703 12.5522 13.2622 12.5525 13.2542V10.8196C12.5525 10.3981 12.9343 10.0565 13.4052 10.0565C13.8762 10.0565 14.258 10.3981 14.258 10.8196V12.5153H19.8165C20.2875 12.5153 20.6693 12.8569 20.6693 13.2783C20.6693 13.6997 20.2875 14.0414 19.8165 14.0414ZM10.721 6.72163C10.721 6.30022 11.1028 5.95859 11.5738 5.95859L19.8173 5.95859C20.2883 5.95859 20.6701 6.30022 20.6701 6.72163C20.6701 7.14305 20.2883 7.48468 19.8173 7.48468L11.5738 7.48468C11.1028 7.48468 10.721 7.14305 10.721 6.72163ZM3.3302 5.95859C2.85922 5.95859 2.47742 6.30022 2.47742 6.72163C2.47742 7.14305 2.85922 7.48468 3.3302 7.48468H7.05669V9.18041C7.05669 9.60182 7.43849 9.94345 7.90947 9.94345C8.38045 9.94345 8.76226 9.60182 8.76226 9.18041V6.74774C8.76258 6.73907 8.76274 6.73037 8.76274 6.72163C8.76274 6.7129 8.76258 6.7042 8.76226 6.69553V4.26301C8.76226 3.84159 8.38045 3.49996 7.90947 3.49996C7.43849 3.49996 7.05669 3.84159 7.05669 4.26301V5.95859H3.3302Z"
        fill="#3F434A" />
</svg>