<svg width="19" height="14" viewBox="0 0 19 14" fill="none" xmlns="http://www.w3.org/2000/svg">
<path fill-rule="evenodd" clip-rule="evenodd" d="M1.3302 9.51526C0.859221 9.51526 0.477417 9.85689 0.477417 10.2783C0.477417 10.6997 0.859221 11.0414 1.3302 11.0414H7.74187C8.21284 11.0414 8.59465 10.6997 8.59465 10.2783C8.59465 9.85689 8.21284 9.51526 7.74187 9.51526H1.3302ZM17.8165 11.0414H12.258V12.737C12.258 13.1584 11.8762 13.5 11.4052 13.5C10.9343 13.5 10.5525 13.1584 10.5525 12.737V10.3024C10.5522 10.2944 10.552 10.2864 10.552 10.2783C10.552 10.2703 10.5522 10.2622 10.5525 10.2542V7.81956C10.5525 7.39814 10.9343 7.05651 11.4052 7.05651C11.8762 7.05651 12.258 7.39814 12.258 7.81956V9.51526H17.8165C18.2875 9.51526 18.6693 9.85689 18.6693 10.2783C18.6693 10.6997 18.2875 11.0414 17.8165 11.0414ZM8.72099 3.72163C8.72099 3.30022 9.1028 2.95859 9.57378 2.95859L17.8173 2.95859C18.2883 2.95859 18.6701 3.30022 18.6701 3.72163C18.6701 4.14305 18.2883 4.48468 17.8173 4.48468L9.57378 4.48468C9.1028 4.48468 8.72099 4.14305 8.72099 3.72163ZM1.3302 2.95859C0.859221 2.95859 0.477417 3.30022 0.477417 3.72163C0.477417 4.14305 0.859221 4.48468 1.3302 4.48468H5.05669V6.18041C5.05669 6.60182 5.43849 6.94345 5.90947 6.94345C6.38045 6.94345 6.76226 6.60182 6.76226 6.18041V3.74774C6.76258 3.73907 6.76274 3.73037 6.76274 3.72163C6.76274 3.7129 6.76258 3.7042 6.76226 3.69553V1.26301C6.76226 0.841589 6.38045 0.499963 5.90947 0.499963C5.43849 0.499963 5.05669 0.841589 5.05669 1.26301V2.95859H1.3302Z" fill="#3F434A"/>
</svg>
