<svg width="20" height="20" viewBox="0 0 20 20" fill="none" xmlns="http://www.w3.org/2000/svg">
<g id="Folders_group">
<path id="Vector 324" d="M2.5 10V6.6C2.5 6.03995 2.5 5.75992 2.60899 5.54601C2.70487 5.35785 2.85785 5.20487 3.04601 5.10899C3.25992 5 3.53995 5 4.1 5H5" stroke="#8A9099" stroke-width="2"/>
<path id="Vector 424" d="M17.5 10V6.6C17.5 6.03995 17.5 5.75992 17.391 5.54601C17.2951 5.35785 17.1422 5.20487 16.954 5.10899C16.7401 5 16.4601 5 15.9 5H15" stroke="#8A9099" stroke-width="2"/>
<path id="Vector 423" d="M5 4L8 6L5 8V4Z" fill="#8A9099"/>
<path id="Vector 425" d="M19 4L16 6L19 8V4Z" fill="#8A9099"/>
<path id="Rectangle 4020" d="M12.5 13.2665C12.5 12.7065 12.5 12.4264 12.609 12.2125C12.7049 12.0244 12.8578 11.8714 13.046 11.7755C13.2599 11.6665 13.5399 11.6665 14.1 11.6665H14.1667L15 12.4998H15.9C16.4601 12.4998 16.7401 12.4998 16.954 12.6088C17.1422 12.7047 17.2951 12.8577 17.391 13.0458C17.5 13.2598 17.5 13.5398 17.5 14.0998V15.0665C17.5 15.6266 17.5 15.9066 17.391 16.1205C17.2951 16.3087 17.1422 16.4616 16.954 16.5575C16.7401 16.6665 16.4601 16.6665 15.9 16.6665H14.1C13.5399 16.6665 13.2599 16.6665 13.046 16.5575C12.8578 16.4616 12.7049 16.3087 12.609 16.1205C12.5 15.9066 12.5 15.6266 12.5 15.0665V13.2665Z" stroke="#8A9099" stroke-width="2" stroke-linejoin="round"/>
<path id="Rectangle 4023" d="M2.5 13.2665C2.5 12.7065 2.5 12.4264 2.60899 12.2125C2.70487 12.0244 2.85785 11.8714 3.04601 11.7755C3.25992 11.6665 3.53995 11.6665 4.1 11.6665H4.16667L5 12.4998H5.9C6.46005 12.4998 6.74008 12.4998 6.95399 12.6088C7.14215 12.7047 7.29513 12.8577 7.39101 13.0458C7.5 13.2598 7.5 13.5398 7.5 14.0998V15.0665C7.5 15.6266 7.5 15.9066 7.39101 16.1205C7.29513 16.3087 7.14215 16.4616 6.95399 16.5575C6.74008 16.6665 6.46005 16.6665 5.9 16.6665H4.1C3.53995 16.6665 3.25992 16.6665 3.04601 16.5575C2.85785 16.4616 2.70487 16.3087 2.60899 16.1205C2.5 15.9066 2.5 15.6266 2.5 15.0665V13.2665Z" stroke="#8A9099" stroke-width="2" stroke-linejoin="round"/>
<path id="Rectangle 4024" d="M7.5 4.1C7.5 3.53995 7.5 3.25992 7.60899 3.04601C7.70487 2.85785 7.85785 2.70487 8.04601 2.60899C8.25992 2.5 8.53995 2.5 9.1 2.5H9.16667L10 3.33333H10.9C11.4601 3.33333 11.7401 3.33333 11.954 3.44233C12.1422 3.5382 12.2951 3.69118 12.391 3.87934C12.5 4.09325 12.5 4.37328 12.5 4.93333V5.9C12.5 6.46005 12.5 6.74008 12.391 6.95399C12.2951 7.14215 12.1422 7.29513 11.954 7.39101C11.7401 7.5 11.4601 7.5 10.9 7.5H9.1C8.53995 7.5 8.25992 7.5 8.04601 7.39101C7.85785 7.29513 7.70487 7.14215 7.60899 6.95399C7.5 6.74008 7.5 6.46005 7.5 5.9V4.1Z" stroke="#8A9099" stroke-width="2" stroke-linejoin="round"/>
</g>
</svg>
