<svg width="20" height="20" viewBox="0 0 20 20" fill="none" xmlns="http://www.w3.org/2000/svg">
<g id="Form">
<path id="Rectangle 25" d="M3.33337 6.5C3.33337 4.61438 3.33337 3.67157 3.91916 3.08579C4.50495 2.5 5.44776 2.5 7.33337 2.5H12.6667C14.5523 2.5 15.4951 2.5 16.0809 3.08579C16.6667 3.67157 16.6667 4.61438 16.6667 6.5V11.5C16.6667 14.3284 16.6667 15.7426 15.788 16.6213C14.9093 17.5 13.4951 17.5 10.6667 17.5H9.33337C6.50495 17.5 5.09073 17.5 4.21205 16.6213C3.33337 15.7426 3.33337 14.3284 3.33337 11.5V6.5Z" stroke="#8A9099" stroke-width="2"/>
<path id="Line 2" d="M12.5 15L12.5 17.5M7.5 15L7.5 17.5" stroke="#8A9099" stroke-width="2" stroke-linecap="round"/>
<path id="Vector 58" d="M7.5 6.66666L12.5 6.66666" stroke="#8A9099" stroke-width="2" stroke-linecap="round"/>
<path id="Vector 59" d="M7.5 10L12.5 10" stroke="#8A9099" stroke-width="2" stroke-linecap="round"/>
</g>
</svg>
