<svg width="20" height="20" viewBox="0 0 24 24" fill="none" xmlns="http://www.w3.org/2000/svg">
<g id="Group_add">
<g id="Group 8726">
<path id="Ellipse 46 (Stroke)" fill-rule="evenodd" clip-rule="evenodd" d="M9 11C10.1046 11 11 10.1046 11 9C11 7.89543 10.1046 7 9 7C7.89543 7 7 7.89543 7 9C7 10.1046 7.89543 11 9 11ZM9 13C11.2091 13 13 11.2091 13 9C13 6.79086 11.2091 5 9 5C6.79086 5 5 6.79086 5 9C5 11.2091 6.79086 13 9 13Z" fill="#8A9099"/>
<path id="Ellipse 47 (Stroke)" fill-rule="evenodd" clip-rule="evenodd" d="M14.5 9.13398C14.2703 9.00137 13.9974 8.96543 13.7412 9.03408C13.485 9.10272 13.2666 9.27032 13.134 9.5C13.0014 9.72969 12.9654 10.0026 13.0341 10.2588C13.1027 10.515 13.2703 10.7334 13.5 10.866C13.7297 10.9986 14.0026 11.0346 14.2588 10.9659C14.515 10.8973 14.7334 10.7297 14.866 10.5C14.9986 10.2703 15.0346 9.99736 14.9659 9.74118C14.8973 9.485 14.7297 9.26658 14.5 9.13398ZM13.2235 7.10223C13.9921 6.8963 14.8109 7.00411 15.5 7.40193C16.189 7.79975 16.6918 8.45501 16.8978 9.22354C17.1037 9.99208 16.9959 10.8109 16.5981 11.5C16.2002 12.189 15.545 12.6918 14.7765 12.8978C14.0079 13.1037 13.1891 12.9959 12.5 12.5981C11.811 12.2002 11.3082 11.545 11.1022 10.7765C10.8963 10.0079 11.0041 9.18905 11.4019 8.5C11.7998 7.81095 12.455 7.30816 13.2235 7.10223Z" fill="#8A9099"/>
<path id="Subtract (Stroke)" fill-rule="evenodd" clip-rule="evenodd" d="M13.6138 16.0222C14.1326 16.6702 14.4537 17.3782 14.6534 18H16.687C16.2841 17.0112 15.519 16 14 16C13.8641 16 13.7355 16.0077 13.6138 16.0222ZM11.176 14.9142C11.9028 14.3622 12.8381 14 14 14C16.9485 14 18.1976 16.2588 18.6627 17.5699C19.1414 18.9194 18.0132 20 16.8672 20H13.0629L12.9013 19.1974C12.7271 18.3324 12.2918 17.206 11.2527 16.5597L10.0194 15.7927L11.176 14.9142Z" fill="#8A9099"/>
<path id="Rectangle 4160 (Stroke)" fill-rule="evenodd" clip-rule="evenodd" d="M5.14222 19H12.8579C12.7146 18.4014 12.4399 17.6951 11.9285 17.1267C11.3887 16.527 10.5154 16 9.00005 16C7.48471 16 6.6114 16.527 6.07164 17.1267C5.56015 17.6951 5.28549 18.4014 5.14222 19ZM4.58502 15.7889C5.5212 14.7486 6.94384 14 9.00005 14C11.0562 14 12.4789 14.7486 13.4151 15.7889C14.3198 16.7941 14.6999 17.9918 14.864 18.8128C15.1187 20.086 14.0628 21 13 21H5.00005C3.93729 21 2.88143 20.086 3.13605 18.8128C3.30023 17.9918 3.68032 16.7941 4.58502 15.7889Z" fill="#8A9099"/>
</g>
<path id="Vector 571 (Stroke)" fill-rule="evenodd" clip-rule="evenodd" d="M19 2C19.5523 2 20 2.44772 20 3V7C20 7.55228 19.5523 8 19 8C18.4477 8 18 7.55228 18 7V3C18 2.44772 18.4477 2 19 2Z" fill="#8A9099"/>
<path id="Vector 572 (Stroke)" fill-rule="evenodd" clip-rule="evenodd" d="M22 5C22 5.55228 21.5523 6 21 6L17 6C16.4477 6 16 5.55228 16 5C16 4.44771 16.4477 4 17 4L21 4C21.5523 4 22 4.44772 22 5Z" fill="#8A9099"/>
</g>
</svg>
