<svg width="20" height="20" viewBox="0 0 20 20" fill="none" xmlns="http://www.w3.org/2000/svg">
<g id="Home">
<path id="Rectangle 1" d="M4.16663 10.633C4.16663 9.50149 4.16663 8.93576 4.39534 8.43848C4.62406 7.94119 5.0536 7.57302 5.91267 6.83667L6.746 6.12239C8.29877 4.79145 9.07515 4.12598 9.99996 4.12598C10.9248 4.12598 11.7012 4.79145 13.2539 6.12239L14.0873 6.83667C14.9463 7.57302 15.3759 7.94119 15.6046 8.43848C15.8333 8.93576 15.8333 9.50149 15.8333 10.633V14.1666C15.8333 15.738 15.8333 16.5236 15.3451 17.0118C14.857 17.4999 14.0713 17.4999 12.5 17.4999H7.49996C5.92861 17.4999 5.14294 17.4999 4.65478 17.0118C4.16663 16.5236 4.16663 15.738 4.16663 14.1666V10.633Z" stroke="#8A9099" stroke-width="2"/>
<path id="Vector 3" d="M12.0833 17.5V13.5C12.0833 12.9477 11.6356 12.5 11.0833 12.5H8.91663C8.36434 12.5 7.91663 12.9477 7.91663 13.5V17.5" stroke="#8A9099" stroke-width="2" stroke-linecap="round" stroke-linejoin="round"/>
</g>
</svg>
