<svg width="24" height="24" viewBox="0 0 24 24" fill="none" xmlns="http://www.w3.org/2000/svg">
<path fill-rule="evenodd" clip-rule="evenodd" d="M3.17157 3.17089C2 4.34247 2 6.22809 2 9.99932V13.9993C2 17.7706 2 19.6562 3.17157 20.8277C4.34315 21.9993 6.22876 21.9993 10 21.9993H14C17.7712 21.9993 19.6569 21.9993 20.8284 20.8277C22 19.6562 22 17.7706 22 13.9993V13.9993V9.99932C22 7.15998 22 5.3895 21.5 4.18788V16.9993C20.5396 16.9993 19.6185 16.6178 18.9393 15.9387L18.1877 15.187C17.4664 14.4657 17.1057 14.105 16.6968 13.953C16.2473 13.786 15.7527 13.786 15.3032 13.953C14.8943 14.105 14.5336 14.4657 13.8123 15.187L13.6992 15.3001C13.1138 15.8855 12.8212 16.1782 12.5102 16.2327C12.2685 16.2752 12.0197 16.2272 11.811 16.0981C11.5425 15.9319 11.3795 15.5515 11.0534 14.7906L11 14.666C10.2504 12.9168 9.87554 12.0422 9.22167 11.7145C8.89249 11.5494 8.52413 11.4785 8.1572 11.5095C7.42836 11.571 6.75554 12.2438 5.40989 13.5894L3.5 15.4993V2.88672C3.3844 2.97282 3.27519 3.06728 3.17157 3.17089Z" fill="#8A9099"/>
<path d="M3 10C3 8.08611 3.00212 6.75129 3.13753 5.74416C3.26907 4.76579 3.50966 4.2477 3.87868 3.87868C4.2477 3.50966 4.76579 3.26907 5.74416 3.13753C6.75129 3.00212 8.08611 3 10 3H14C15.9139 3 17.2487 3.00212 18.2558 3.13753C19.2342 3.26907 19.7523 3.50966 20.1213 3.87868C20.4903 4.2477 20.7309 4.76579 20.8625 5.74416C20.9979 6.75129 21 8.08611 21 10V14C21 15.9139 20.9979 17.2487 20.8625 18.2558C20.7309 19.2342 20.4903 19.7523 20.1213 20.1213C19.7523 20.4903 19.2342 20.7309 18.2558 20.8625C17.2487 20.9979 15.9139 21 14 21H10C8.08611 21 6.75129 20.9979 5.74416 20.8625C4.76579 20.7309 4.2477 20.4903 3.87868 20.1213C3.50966 19.7523 3.26907 19.2342 3.13753 18.2558C3.00212 17.2487 3 15.9139 3 14V10Z" stroke="#8A9099" stroke-width="2"/>
<circle cx="15" cy="9" r="2" fill="#8A9099"/>
</svg>
