<svg width="22" height="22" viewBox="0 0 22 22" fill="none" xmlns="http://www.w3.org/2000/svg">
<path d="M10.9998 12.8333L10.2927 13.5404L10.9998 14.2475L11.7069 13.5404L10.9998 12.8333ZM11.9998 4.58325C11.9998 4.03097 11.5521 3.58325 10.9998 3.58325C10.4476 3.58325 9.99984 4.03097 9.99984 4.58325L11.9998 4.58325ZM5.7094 8.95703L10.2927 13.5404L11.7069 12.1261L7.12361 7.54281L5.7094 8.95703ZM11.7069 13.5404L16.2903 8.95703L14.8761 7.54281L10.2927 12.1261L11.7069 13.5404ZM11.9998 12.8333L11.9998 4.58325L9.99984 4.58325L9.99984 12.8333L11.9998 12.8333Z" fill="#3F434A"/>
<path d="M4.5835 14.6667L4.5835 15.5834C4.5835 16.5959 5.40431 17.4167 6.41683 17.4167L15.5835 17.4167C16.596 17.4167 17.4168 16.5959 17.4168 15.5834V14.6667" stroke="#3F434A" stroke-width="2"/>
</svg>
