<svg width="21" height="24" viewBox="0 0 21 24" xmlns="http://www.w3.org/2000/svg">
    <path
        d="M5.58284 8.12677L5.61203 8.11952C7.0423 7.76427 8.47257 7.40902 9.90284 7.05377L10.9318 6.82177L11.7053 6.98127C13.245 7.36552 14.7774 7.74252 16.3172 8.12677C16.4412 8.15577 16.4704 8.14127 16.4485 8.01802C16.3172 7.19877 16.1931 6.38677 16.0691 5.5675C15.945 4.74825 15.7553 3.929 15.8136 3.09524C15.8209 2.96475 15.7845 2.93574 15.6604 2.93574C14.6169 2.94299 13.5807 2.93575 12.5372 2.943C12.4277 2.943 12.3912 2.90675 12.3693 2.80525C12.238 2.247 12.0847 1.696 11.9534 1.13775C11.9242 1.02175 11.8731 1 11.7709 1C11.2091 1.00725 10.6545 1.00725 10.0926 1C9.9904 1 9.95392 1.02899 9.93203 1.12324C9.79338 1.68149 9.64743 2.2325 9.51608 2.79075C9.48689 2.90675 9.44311 2.93574 9.32635 2.93574C8.29013 2.92849 7.25392 2.93575 6.2177 2.9285C6.08635 2.9285 6.06446 2.96475 6.06446 3.088C6.05716 3.407 6.09365 3.73325 6.04257 4.05225C5.83824 5.35725 5.64122 6.66227 5.43689 7.96002C5.39311 8.17027 5.39311 8.17027 5.58284 8.12677ZM13.8726 4.20449C14.4418 4.20449 14.9088 4.66849 14.9088 5.23399C14.9088 5.79949 14.4418 6.26352 13.8726 6.26352C13.3034 6.26352 12.8364 5.80674 12.8364 5.23399C12.8364 4.66849 13.2961 4.20449 13.8726 4.20449ZM10.9391 4.20449C11.5082 4.20449 11.9753 4.66849 11.9753 5.23399C11.9753 5.79949 11.5155 6.26352 10.9391 6.26352C10.3699 6.26352 9.90284 5.80674 9.90284 5.23399C9.90284 4.66849 10.3699 4.20449 10.9391 4.20449ZM7.97635 4.20449C8.54554 4.20449 9.01257 4.66849 9.01257 5.23399C9.01257 5.79949 8.55284 6.26352 7.97635 6.26352C7.40716 6.26352 6.94013 5.80674 6.94013 5.23399C6.94013 4.66849 7.39986 4.20449 7.97635 4.20449Z" />
    <path
        d="M5.56847 15.3695C5.79469 15.8843 6.16685 16.2105 6.64118 16.3773C6.80172 16.4135 6.96955 16.4425 7.13009 16.4425C7.61901 16.4353 8.11523 16.2685 8.52388 15.9205C8.58955 15.8625 8.65523 15.8118 8.71361 15.7465C8.82307 15.6378 8.94712 15.5798 9.07847 15.5725C9.21712 15.5725 9.34118 15.6233 9.45793 15.7393C9.5382 15.819 9.62577 15.8915 9.71334 15.964C10.0636 16.254 10.4431 16.4063 10.8809 16.428H10.9685C11.4063 16.399 11.7858 16.254 12.136 15.964C12.2236 15.8915 12.3112 15.819 12.3914 15.7393C12.5082 15.6233 12.6323 15.5653 12.7709 15.5725C12.9096 15.5725 13.0263 15.6305 13.1358 15.7465C13.1941 15.8045 13.2598 15.8625 13.3255 15.9205C13.7341 16.2685 14.2304 16.4353 14.7193 16.4425C14.8871 16.4425 15.0477 16.4135 15.2082 16.3773C15.6825 16.2105 16.0547 15.877 16.2809 15.3695C17.0909 13.5498 17.8644 11.7155 18.6598 9.88126C18.7109 9.76526 18.7109 9.72176 18.565 9.68551C16.0474 9.06201 13.5298 8.43851 11.0123 7.80776H10.8298C8.31226 8.43851 5.79469 9.06201 3.26982 9.68551C3.12388 9.72176 3.12388 9.76526 3.17496 9.88126C3.98496 11.7083 4.75847 13.5425 5.56847 15.3695Z" />
    <path
        d="M20.0681 17.095C19.4916 16.4498 18.6597 15.906 17.5286 15.4275L17.3754 15.3695C17.317 15.5 17.2586 15.6378 17.2003 15.7683C16.9813 16.254 16.6603 16.6528 16.2662 16.9428C15.8649 17.211 15.4124 17.3488 14.96 17.356C14.4419 17.3488 13.9165 17.182 13.4786 16.834C13.4057 16.776 13.34 16.7253 13.2743 16.66C13.1649 16.5513 13.0335 16.4933 12.8876 16.486C12.7416 16.486 12.6103 16.5368 12.4862 16.6528C12.3986 16.7325 12.3038 16.805 12.2162 16.8775C11.844 17.1675 11.4427 17.3198 10.9757 17.3415H10.8881C10.4211 17.3125 10.0197 17.1675 9.64756 16.8775C9.55269 16.805 9.45783 16.7325 9.37756 16.6528C9.2535 16.5368 9.12215 16.4788 8.9762 16.486C8.83026 16.486 8.69891 16.544 8.58945 16.66C8.52377 16.718 8.4581 16.776 8.38512 16.834C7.94729 17.182 7.42188 17.3488 6.90377 17.356C6.45134 17.3488 5.99161 17.211 5.59026 16.9428C5.1962 16.6528 4.87512 16.2613 4.6562 15.7683C4.59783 15.6378 4.53944 15.5 4.48106 15.3695L4.32783 15.4275C3.19674 15.906 2.36485 16.4498 1.78836 17.095C0.941872 18.0448 0.77405 19.038 1.29946 20.0458C1.63513 20.6838 2.2262 21.2565 3.11647 21.7858C4.14539 22.402 5.36404 22.8515 6.8381 23.1705C8.1662 23.4533 9.5381 23.5765 10.9319 23.5765C12.3257 23.5765 13.6903 23.4533 15.0257 23.1705C16.4997 22.8588 17.7184 22.4093 18.7473 21.7858C19.6376 21.2565 20.2286 20.6838 20.5643 20.0458C21.0751 19.0308 20.9146 18.0375 20.0681 17.095ZM14.8286 19.6398C14.2011 19.6325 13.5589 19.4585 12.924 19.1105L12.8365 19.0598L12.7489 19.1105C12.2016 19.4295 11.574 19.6035 10.9319 19.6253C10.2897 19.6108 9.66215 19.4295 9.11485 19.1105L9.02729 19.0598L8.93972 19.1105C8.30485 19.4513 7.66269 19.6325 7.03512 19.6398C6.8308 19.6398 6.67026 19.4803 6.67026 19.2773C6.67026 19.0743 6.8381 18.9148 7.03512 18.9148H7.05701C7.61161 18.9003 8.14431 18.6973 8.58945 18.3348C8.65512 18.2768 8.7208 18.226 8.77918 18.168C8.85215 18.0883 8.93972 18.052 9.02729 18.052C9.12215 18.052 9.20242 18.0883 9.28269 18.168C9.37026 18.255 9.46512 18.3275 9.55999 18.4073C9.91756 18.6973 10.3043 18.8713 10.7422 18.922H11.1216C11.5594 18.8713 11.9462 18.6973 12.3038 18.4073C12.3986 18.3275 12.4935 18.255 12.5811 18.168C12.6613 18.0883 12.7489 18.052 12.8365 18.052C12.9313 18.052 13.0116 18.0955 13.0846 18.168C13.143 18.226 13.2086 18.284 13.2743 18.3348C13.7194 18.7045 14.2521 18.9003 14.8067 18.9148H14.8286C15.033 18.9148 15.1935 19.0815 15.1935 19.2773C15.2008 19.4803 15.033 19.6398 14.8286 19.6398Z" />
</svg>