<svg width="52" height="60" viewBox="0 0 52 60" fill="none" xmlns="http://www.w3.org/2000/svg">
<g filter="url(#filter0_f_1648_7568)">
<ellipse cx="26" cy="53.5" rx="7" ry="2.5" fill="black" fill-opacity="0.1"/>
</g>
<g filter="url(#filter1_d_1648_7568)">
<path fill-rule="evenodd" clip-rule="evenodd" d="M26 4C37.598 4 47 13.402 47 25C47 33.8926 41.4727 41.4942 33.6663 44.5567L27.1961 53.4007C27.0612 53.5858 26.8821 53.7369 26.6739 53.8412C26.4657 53.9455 26.2346 54 26 54C25.7654 54 25.5343 53.9455 25.3261 53.8412C25.1179 53.7369 24.9388 53.5858 24.8039 53.4007L18.3337 44.5567C10.5273 41.4941 5 33.8926 5 25C5 13.402 14.402 4 26 4Z" fill="white"/>
<path d="M33.4837 44.0912L33.3485 44.1443L33.2628 44.2615L26.7926 53.1054L26.792 53.1062C26.7049 53.2257 26.588 53.325 26.4499 53.3942C26.3118 53.4634 26.1574 53.5 26 53.5C25.8426 53.5 25.6882 53.4634 25.5501 53.3942C25.412 53.325 25.2951 53.2257 25.208 53.1062L25.2074 53.1054L18.7372 44.2614L18.6515 44.1442L18.5163 44.0912C10.8949 41.1013 5.5 33.68 5.5 25C5.5 13.6782 14.6782 4.5 26 4.5C37.3218 4.5 46.5 13.6782 46.5 25C46.5 33.68 41.1051 41.1013 33.4837 44.0912Z" stroke="#D8D8D8"/>
</g>
<path d="M43 25C43 15.6112 35.3888 8 26 8C16.6112 8 9 15.6112 9 25C9 34.3888 16.6112 42 26 42C35.3888 42 43 34.3888 43 25Z" fill="#3478F5"/>
<g clip-path="url(#clip0_1648_7568)">
<path d="M29.8394 14.9997C30.8486 14.9997 31.7854 15.5067 32.3387 16.3403L32.4441 16.5113L34.4375 19.9997H35.6C35.7933 19.9997 35.9546 20.1368 35.9919 20.3191L36 20.3997V20.8751C36 21.2055 35.7977 21.4978 35.4975 21.6178L35.3703 21.6571C35.745 22.4351 35.912 23.2973 35.8544 24.1595L35.8269 24.4468L35.1018 30.2478C34.9833 31.196 34.2134 31.92 33.2751 31.9936L33.1172 31.9997H32C30.9456 31.9997 30.0818 31.1839 30.0055 30.149L30 29.9997H22C22 31.0541 21.1841 31.9179 20.1493 31.9942L20 31.9997H18.8828C17.9272 31.9997 17.1133 31.3256 16.9239 30.4037L16.8982 30.2478L16.1731 24.4468C16.0655 23.5856 16.1842 22.7151 16.5125 21.9195L16.6297 21.6571L16.606 21.6512C16.2855 21.5711 16.051 21.3039 16.0074 20.9836L16 20.8751V20.3997C16 20.2064 16.1371 20.0452 16.3194 20.0079L16.4 19.9997H17.5625L19.5559 16.5113C20.0567 15.635 20.9616 15.0732 21.9599 15.0064L22.1607 14.9997H29.8394ZM33.7592 23.0352C33.2657 23.5739 32.5719 23.9399 31.7592 23.993L31.5536 23.9997H20.4464C19.5451 23.9997 18.7754 23.6188 18.2408 23.0352C18.1584 23.3363 18.1233 23.6494 18.1376 23.9633L18.1577 24.1987L18.8828 29.9997H20V28.9997C20 28.4869 20.386 28.0642 20.8834 28.0065L21 27.9997H31C31.5128 27.9997 31.9355 28.3858 31.9933 28.8831L32 28.9997V29.9997H33.1172L33.8423 24.1987C33.8913 23.8067 33.8622 23.4115 33.7592 23.0352ZM19.7376 24.898L22.4802 26.379C22.8533 26.5805 22.6978 27.1476 22.2742 27.1307L19.96 27.0381C19.4237 27.0166 19 26.5756 19 26.0389V25.3379C19 24.9593 19.4044 24.7181 19.7376 24.898ZM33 25.3379V26.0389C33 26.5756 32.5763 27.0166 32.04 27.0381L29.7258 27.1307C29.3022 27.1476 29.1467 26.5805 29.5198 26.379L32.2624 24.898C32.5956 24.7181 33 24.9593 33 25.3379ZM29.8394 16.9997H22.1607C21.8018 16.9997 21.4704 17.192 21.2924 17.5036L19.5781 20.5036C19.1976 21.1702 19.6787 21.9997 20.4464 21.9997H31.5536C32.3215 21.9997 32.8028 21.1702 32.4219 20.5036L30.7076 17.5036C30.5296 17.192 30.1982 16.9997 29.8394 16.9997Z" fill="white"/>
</g>
<defs>
<filter id="filter0_f_1648_7568" x="15" y="47" width="22" height="13" filterUnits="userSpaceOnUse" color-interpolation-filters="sRGB">
<feFlood flood-opacity="0" result="BackgroundImageFix"/>
<feBlend mode="normal" in="SourceGraphic" in2="BackgroundImageFix" result="shape"/>
<feGaussianBlur stdDeviation="2" result="effect1_foregroundBlur_1648_7568"/>
</filter>
<filter id="filter1_d_1648_7568" x="0" y="0" width="52" height="60" filterUnits="userSpaceOnUse" color-interpolation-filters="sRGB">
<feFlood flood-opacity="0" result="BackgroundImageFix"/>
<feColorMatrix in="SourceAlpha" type="matrix" values="0 0 0 0 0 0 0 0 0 0 0 0 0 0 0 0 0 0 127 0" result="hardAlpha"/>
<feOffset dy="1"/>
<feGaussianBlur stdDeviation="2.5"/>
<feComposite in2="hardAlpha" operator="out"/>
<feColorMatrix type="matrix" values="0 0 0 0 0 0 0 0 0 0 0 0 0 0 0 0 0 0 0.1 0"/>
<feBlend mode="normal" in2="BackgroundImageFix" result="effect1_dropShadow_1648_7568"/>
<feBlend mode="normal" in="SourceGraphic" in2="effect1_dropShadow_1648_7568" result="shape"/>
</filter>
<clipPath id="clip0_1648_7568">
<rect width="20" height="20" fill="white" transform="translate(16 15)"/>
</clipPath>
</defs>
</svg>
