<svg width="16" height="16" viewBox="0 0 16 16" fill="none" xmlns="http://www.w3.org/2000/svg">
<path d="M2.66666 13.3333H1.66666V14.3333H2.66666V13.3333ZM6.7071 10.7071C7.09762 10.3166 7.09762 9.68341 6.7071 9.29289C6.31657 8.90236 5.68341 8.90236 5.29288 9.29289L6.7071 10.7071ZM1.66666 9.33333V13.3333H3.66666V9.33333H1.66666ZM2.66666 14.3333H6.66666V12.3333H2.66666V14.3333ZM3.37376 14.0404L6.7071 10.7071L5.29288 9.29289L1.95955 12.6262L3.37376 14.0404Z" fill="#33363F"/>
<path d="M13.3333 2.66667H14.3333V1.66667H13.3333V2.66667ZM9.2929 5.2929C8.90238 5.68342 8.90238 6.31659 9.2929 6.70711C9.68343 7.09764 10.3166 7.09764 10.7071 6.70711L9.2929 5.2929ZM14.3333 6.66667V2.66667H12.3333V6.66667H14.3333ZM13.3333 1.66667H9.33334V3.66667H13.3333V1.66667ZM12.6262 1.95957L9.2929 5.2929L10.7071 6.70711L14.0405 3.37378L12.6262 1.95957Z" fill="#33363F"/>
</svg>
