<svg width="16" height="16" viewBox="0 0 16 16" fill="none" xmlns="http://www.w3.org/2000/svg">
    <path
        d="M6.66663 9.33331H7.66663V8.33331H6.66663V9.33331ZM2.62619 11.9595C2.23566 12.3501 2.23566 12.9832 2.62619 13.3738C3.01671 13.7643 3.64988 13.7643 4.0404 13.3738L2.62619 11.9595ZM7.66663 13.3333L7.66663 9.33331H5.66663V13.3333H7.66663ZM6.66663 8.33331H2.66663V10.3333H6.66663V8.33331ZM5.95952 8.62621L2.62619 11.9595L4.0404 13.3738L7.37373 10.0404L5.95952 8.62621Z"
        fill="#33363F" />
    <path
        d="M9.33337 6.66669H8.33337V7.66669H9.33337V6.66669ZM13.3738 4.04046C13.7643 3.64994 13.7643 3.01677 13.3738 2.62625C12.9833 2.23572 12.3501 2.23572 11.9596 2.62625L13.3738 4.04046ZM8.33337 2.66669V6.66669H10.3334V2.66669H8.33337ZM9.33337 7.66669L13.3334 7.66669V5.66669H9.33337V7.66669ZM10.0405 7.37379L13.3738 4.04046L11.9596 2.62625L8.62627 5.95958L10.0405 7.37379Z"
        fill="#33363F" />
</svg>