<svg width="24" height="24" viewBox="0 0 24 24" xmlns="http://www.w3.org/2000/svg">
    <g clip-path="url(#clip0_2781_12004)">
        <path
            d="M20.8383 4.07498L20.8079 4.08247C20.6714 4.09744 20.5349 4.13487 20.4059 4.18726C20.0873 4.32944 19.8371 4.55395 19.6702 4.86079C19.5185 5.14517 19.4654 5.452 19.5109 5.76632C19.5564 6.10307 19.7005 6.38747 19.9357 6.61945C20.0949 6.78415 20.2922 6.90385 20.5121 6.9787C20.7017 7.04605 20.899 7.06105 21.1038 7.05355C21.2934 7.04605 21.4679 7.00112 21.6423 6.92627C21.8396 6.8365 22.0064 6.71672 22.1429 6.5596C22.2643 6.4324 22.3553 6.2827 22.416 6.11807C22.4994 5.91602 22.5222 5.69897 22.5146 5.48193C22.5071 5.29483 22.4615 5.12272 22.3856 4.95059C22.2947 4.75601 22.1733 4.59136 22.0064 4.44916C21.8319 4.29949 21.6423 4.18724 21.4223 4.12737C21.3389 4.10492 21.2555 4.08994 21.1721 4.07498H20.8383Z" />
        <path
            d="M20.3831 7.525C19.9963 7.62227 19.6019 7.71205 19.2151 7.81682C18.7069 7.95902 18.3579 8.42297 18.3579 8.93935C18.3579 10.1293 18.3579 11.3192 18.3579 12.5091C18.3579 12.8384 18.5552 13.0928 18.8737 13.1976C18.9799 13.235 19.0937 13.2275 19.1999 13.2201C19.2833 13.2201 19.3136 13.25 19.3212 13.3324C19.3971 14.2154 19.4805 15.0911 19.5563 15.9741C19.6247 16.7075 19.6853 17.441 19.746 18.1743C19.7839 18.6833 20.1632 18.9527 20.588 18.9227C20.7928 18.9077 20.9975 18.9152 21.2099 18.9152C21.3161 18.9152 21.4147 18.9227 21.5209 18.9152C21.9077 18.9152 22.2112 18.6683 22.2566 18.2941C22.3477 17.4484 22.4159 16.5953 22.4994 15.7421C22.5677 14.9788 22.6359 14.2079 22.7042 13.4446C22.727 13.2276 22.727 13.2275 22.9469 13.2201C23.3717 13.2126 23.6751 12.9207 23.6751 12.4942C23.6751 11.8955 23.6751 11.2967 23.6751 10.6981C23.6751 10.4062 23.6751 10.1144 23.6751 9.82247C23.6751 9.53065 23.6751 9.23875 23.6751 8.94685C23.6751 8.40055 23.3186 7.93652 22.7876 7.7944C22.4312 7.69705 22.067 7.62227 21.7106 7.525C21.5133 7.47257 21.3692 7.50999 21.2251 7.65969C21.0279 7.87667 21.0127 7.86924 20.8155 7.65969C20.7245 7.56234 20.6259 7.495 20.4969 7.495C20.459 7.51 20.4211 7.5175 20.3831 7.525Z" />
        <path
            d="M3.74132 14.1332C3.74132 13.4971 4.26468 12.9807 4.90942 12.9807C5.55415 12.9807 6.07753 13.4971 6.07753 14.1332C6.07753 14.7693 5.55415 15.2782 4.90942 15.2782C4.26468 15.2782 3.74132 14.7618 3.74132 14.1332ZM12.2063 14.1332C12.2063 13.4971 12.7297 12.9807 13.3744 12.9807C14.0192 12.9807 14.5425 13.4971 14.5425 14.1332C14.5425 14.7693 14.0192 15.2782 13.3744 15.2782C12.7297 15.2782 12.2063 14.7618 12.2063 14.1332ZM4.94735 8.32577H13.3213L14.4136 11.454H3.8551L4.94735 8.32577ZM5.50105 7.10597C5.30384 7.10597 5.11421 7.1209 4.93217 7.1359C3.96886 7.2481 3.83992 7.78697 3.53651 8.6476C3.35446 9.16397 3.1876 9.62792 3.02073 10.0844L1.8678 10.1444C1.67817 10.1593 1.54921 10.2341 1.51886 10.4063L1.40509 11.2445C1.37475 11.454 1.48093 11.5288 1.63264 11.5588L2.39115 11.701C2.30013 11.8731 2.22429 12.0302 2.19395 12.2398C2.12569 12.7412 2.19395 13.325 2.19395 13.8788V17.3288C2.19395 17.3288 2.20153 17.8975 2.19395 18.1819C2.17878 18.6085 2.48218 18.818 2.78559 18.8929C2.86144 18.9153 2.94487 18.9228 3.02073 18.9228C3.47584 18.9228 3.93094 18.9228 4.37847 18.9228C4.60602 18.9228 4.81082 18.8555 4.99286 18.7058C5.12181 18.601 5.19765 18.4663 5.19765 18.2942C5.19765 18.0173 5.20524 17.7479 5.19765 17.471C5.19765 17.3587 5.23558 17.3288 5.34937 17.3288H12.9193C13.0331 17.3288 13.071 17.3587 13.071 17.471C13.0635 17.7479 13.071 18.0173 13.071 18.2942C13.071 18.4663 13.1469 18.601 13.2758 18.7058C13.4502 18.848 13.6626 18.9153 13.8902 18.9228C14.3453 18.9228 14.8005 18.9228 15.2479 18.9228C15.3314 18.9228 15.4072 18.9153 15.4907 18.8929C15.7941 18.818 16.0975 18.616 16.0823 18.1819C16.0747 17.8975 16.0823 17.3288 16.0823 17.3288V13.8788C16.0823 13.325 16.1506 12.7412 16.0823 12.2398C16.052 12.0377 15.9761 11.8731 15.8851 11.701L16.6436 11.5588C16.7953 11.5288 16.9015 11.4615 16.8711 11.2445L16.7574 10.4063C16.7271 10.2416 16.5981 10.1668 16.4085 10.1444L15.2556 10.0844C15.0963 9.62792 14.9294 9.17147 14.7398 8.6476C14.4363 7.78697 14.3074 7.2481 13.344 7.1359C13.162 7.1134 12.9724 7.10597 12.7752 7.10597H5.50105Z" />
    </g>
    <defs>
        <clipPath id="clip0_2781_12004">
            <rect width="23" height="15" transform="translate(1 4)" />
        </clipPath>
    </defs>
</svg>