<svg width="27" height="27" viewBox="0 0 27 27" xmlns="http://www.w3.org/2000/svg">
    <path
        d="M14.4202 8.11717L14.3977 8.12482C14.2627 8.14012 14.1277 8.17822 14.0002 8.23162C13.6852 8.37652 13.4377 8.60527 13.2727 8.91795C13.1227 9.20775 13.0702 9.52042 13.1152 9.84075C13.1602 10.1839 13.3027 10.4737 13.5352 10.7101C13.6927 10.8779 13.8877 10.9999 14.1052 11.0762C14.2927 11.1448 14.4877 11.1601 14.6902 11.1525C14.8777 11.1448 15.0502 11.0991 15.2227 11.0228C15.4177 10.9313 15.5827 10.8093 15.7177 10.6492C15.8377 10.5195 15.9277 10.3669 15.9877 10.1992C16.0702 9.9933 16.1002 9.77212 16.0852 9.55095C16.0777 9.3603 16.0327 9.18487 15.9577 9.00952C15.8677 8.81122 15.7477 8.64345 15.5827 8.49855C15.4177 8.346 15.2227 8.23162 15.0052 8.17057C14.9227 8.1477 14.8402 8.13247 14.7577 8.11717H14.4202Z" />
    <path
        d="M13.9701 11.6329C13.5876 11.732 13.1977 11.8235 12.8227 11.9303C12.3202 12.0752 11.9751 12.548 11.9751 13.0742C11.9751 14.2868 11.9751 15.4994 11.9751 16.712C11.9751 17.0476 12.1701 17.3068 12.4851 17.4136C12.5901 17.4517 12.7026 17.4441 12.8076 17.4364C12.8901 17.4364 12.9201 17.467 12.9276 17.5509C13.0026 18.4508 13.0852 19.3431 13.1602 20.2429C13.2277 20.9903 13.2877 21.7377 13.3477 22.4851C13.3852 23.0037 13.7602 23.2782 14.1802 23.2477C14.3827 23.2324 14.5852 23.2401 14.7952 23.2401C14.9002 23.2401 14.9976 23.2477 15.1026 23.2401C15.4851 23.2401 15.7852 22.9884 15.8302 22.6071C15.9202 21.7453 15.9876 20.8759 16.0701 20.0065C16.1376 19.2286 16.2051 18.4432 16.2726 17.6653C16.2951 17.4441 16.2951 17.4441 16.5126 17.4364C16.9326 17.4289 17.2327 17.1314 17.2327 16.6967C17.2327 16.0866 17.2327 15.4765 17.2327 14.8664C17.2327 14.569 17.2327 14.2716 17.2327 13.9741C17.2327 13.6768 17.2327 13.3793 17.2327 13.0819C17.2327 12.5251 16.8801 12.0523 16.3551 11.9074C16.0026 11.8083 15.6426 11.732 15.2901 11.6329C15.0951 11.5795 14.9526 11.6176 14.8101 11.7701C14.6151 11.9913 14.6001 11.9837 14.4051 11.7701C14.3076 11.671 14.2177 11.6023 14.0902 11.6023C14.0452 11.6176 14.0076 11.6252 13.9701 11.6329Z" />
    <path d="M8 3V22.8284H10.25V5.28788H19.25V22.8284H21.5V3H8Z" />
</svg>