<svg width="13" height="13" viewBox="0 0 13 13" fill="none" xmlns="http://www.w3.org/2000/svg">
<path d="M10.7597 8.07553L12.4061 9.72192C12.7341 10.0499 12.7341 10.5817 12.4061 10.9097C10.6329 12.6829 7.82564 12.8824 5.81946 11.3778L5.70251 11.29C4.18922 10.1551 2.84493 8.81078 1.70996 7.29749L1.62224 7.18054C0.117611 5.17436 0.317118 2.36709 2.09034 0.593866C2.41833 0.265883 2.95009 0.265883 3.27808 0.593867L4.92447 2.24026C5.315 2.63079 5.315 3.26395 4.92447 3.65447L3.78983 4.78912C3.5696 5.00935 3.515 5.34579 3.65429 5.62436C4.45948 7.23474 5.76526 8.54052 7.37564 9.34571C7.65421 9.485 7.99065 9.4304 8.21088 9.21017L9.34552 8.07553C9.73605 7.685 10.3692 7.685 10.7597 8.07553Z" fill="#8A9099"/>
</svg>
