<svg width="23" height="23" viewBox="0 0 23 23" xmlns="http://www.w3.org/2000/svg">
    <g clip-path="url(#clip0_2781_11964)">
        <path
            d="M17.4766 4.34138C16.6195 4.74294 15.9144 5.34529 15.2517 6.01455C14.6986 6.57431 14.1637 7.14015 13.6227 7.71207C13.5559 7.78505 13.495 7.79727 13.4039 7.76687C13.027 7.64514 12.644 7.53563 12.2611 7.42002C12.0727 7.36527 11.8904 7.30442 11.6958 7.24967C11.8296 7.05496 11.86 6.86027 11.7019 6.67774C11.5864 6.54998 11.4649 6.42221 11.3311 6.3066C11.1609 6.15449 10.936 6.16058 10.7718 6.31877C10.6382 6.44654 10.4984 6.57431 10.3767 6.71425C10.2978 6.80552 10.2187 6.82376 10.1154 6.77509C10.0485 6.74467 10.0059 6.73858 10.0546 6.64732C10.1336 6.49522 10.1033 6.33702 9.98776 6.20925C9.87226 6.08148 9.75675 5.96589 9.6291 5.85028C9.45279 5.69209 9.2279 5.69817 9.0577 5.86245C8.93005 5.98414 8.80851 6.10582 8.68689 6.23359C8.62616 6.30051 8.56535 6.31269 8.47414 6.28835C7.90885 6.11191 7.33749 5.94763 6.77219 5.77727C6.54728 5.71034 6.35884 5.75293 6.18864 5.92329C6.00021 6.11799 5.80569 6.3066 5.61726 6.5013C5.36803 6.75684 5.40451 7.01847 5.72059 7.1949C6.85728 7.82767 7.98791 8.4665 9.12461 9.09317C9.47716 9.28788 9.7993 9.50696 10.0729 9.8051C10.2795 10.0362 10.5044 10.2492 10.7293 10.4622C10.8205 10.5473 10.8084 10.596 10.7293 10.6812C9.80541 11.6547 8.9179 12.6525 8.0973 13.7111C7.96965 13.8754 7.85415 13.9485 7.63536 13.9241C6.76003 13.8268 5.87864 13.7599 5.00332 13.6746C4.73587 13.6442 4.51096 13.7051 4.33468 13.912C4.27389 13.985 4.19487 14.0519 4.12801 14.1188C3.92134 14.3378 3.96997 14.6117 4.23742 14.7516C4.35292 14.8124 4.46841 14.8611 4.5839 14.9158C5.16744 15.1897 5.74491 15.4695 6.32845 15.7433C6.45002 15.7981 6.5412 15.8893 6.61413 15.9927C6.66277 16.0658 6.58983 16.1449 6.57766 16.224C6.57159 16.2787 6.55944 16.3335 6.55336 16.3883C6.52904 16.662 6.69924 16.8993 6.9667 16.9602C7.12473 16.9967 7.27063 16.9602 7.4165 16.9176L7.54415 16.9237C7.62925 17.0088 7.7265 17.088 7.7812 17.2035C8.00609 17.6842 8.23106 18.1588 8.45596 18.6395C8.55321 18.8524 8.65656 19.0593 8.75985 19.2722C8.89361 19.5521 9.16105 19.6068 9.3981 19.4C9.47716 19.3331 9.53789 19.2539 9.61696 19.187C9.8236 19.0106 9.87829 18.7916 9.84796 18.5238C9.75675 17.5807 9.67165 16.6316 9.58044 15.6886C9.57441 15.6338 9.59266 15.5973 9.63521 15.5608C10.7658 14.6847 11.8356 13.7355 12.869 12.7559C12.9297 12.7012 12.9663 12.7012 13.021 12.762C13.3552 13.1027 13.6956 13.4435 14.036 13.7842C14.0969 13.845 14.1454 13.912 14.188 13.985C14.8992 15.2626 15.6165 16.5342 16.3277 17.812C16.4979 18.1162 16.7654 18.1527 17.0145 17.9093C17.1909 17.7329 17.3611 17.5503 17.5494 17.38C17.7683 17.1792 17.8109 16.9541 17.7196 16.6803C17.5434 16.1266 17.3854 15.5669 17.2152 15.0132C17.1969 14.9524 17.203 14.9098 17.2516 14.8672C17.3854 14.7394 17.513 14.6117 17.6407 14.4778C17.8169 14.2892 17.823 14.064 17.6468 13.8755C17.5494 13.772 17.4522 13.6747 17.3489 13.5773C17.203 13.4313 17.0328 13.3826 16.8383 13.4739L16.7714 13.486C16.7167 13.4435 16.7046 13.2427 16.7532 13.1879C16.893 13.048 17.0388 12.908 17.1726 12.762C17.3549 12.5673 17.3549 12.3422 17.1726 12.1475C17.0692 12.038 16.9599 11.9285 16.8505 11.8251C16.7046 11.6851 16.5161 11.6608 16.352 11.7642C16.2669 11.819 16.2548 11.7886 16.2304 11.7155C16.0724 11.1862 15.9204 10.6569 15.7563 10.1336C15.7198 10.012 15.7442 9.94496 15.8353 9.85979C16.4614 9.26963 17.0875 8.67946 17.6892 8.06493C18.3093 7.42002 18.8685 6.7325 19.2333 5.90504C19.3973 5.52781 19.525 5.14451 19.525 4.73077C19.525 4.26837 19.2576 4.00675 18.7956 4.00066H18.7895C18.3093 3.98849 17.8898 4.14668 17.4766 4.34138Z" />
    </g>
    <defs>
        <clipPath id="clip0_2781_11964">
            <rect width="23" height="23" />
        </clipPath>
    </defs>
</svg>