<svg width="262" height="369" viewBox="0 0 262 369" fill="none" xmlns="http://www.w3.org/2000/svg">
    <path opacity="0.5" d="M262 0H0V366.834H262V0Z" fill="url(#paint0_linear_4273_11677)"/>
    <path opacity="0.5" d="M262 333.88H0V369H262V333.88Z" fill="#0067E0"/>
    <g opacity="0.25">
        <path d="M75.6464 173.132C75.6464 173.132 75.6377 173.136 75.6334 173.14C75.5425 173.184 75.4342 173.162 75.3693 173.084C74.2223 171.745 72.9064 171.542 71.742 171.36C70.9239 171.234 70.2183 171.122 69.7508 170.628C69.1924 170.039 68.0021 169.718 67.132 169.666C66.6689 169.64 66.1927 169.675 65.7339 169.705C65.3227 169.736 64.8985 169.766 64.4786 169.753C62.8597 169.714 61.2452 169.012 60.0289 167.83L38.0181 180.487C34.4686 182.527 29.9193 181.297 27.8805 177.745L22.7988 168.895C20.76 165.343 21.9893 160.791 25.5388 158.751L50.0472 144.66C53.5966 142.62 58.1459 143.85 60.1847 147.402L65.2664 156.252C66.2577 157.98 66.5174 159.985 65.9893 161.909C66.1711 162.632 66.4049 163.459 66.7987 164.183C67.2922 165.092 67.9978 165.729 68.7812 165.976C69.0409 166.058 69.3136 166.101 69.6037 166.149C70.1577 166.24 70.7334 166.331 71.1966 166.708C71.6208 167.054 71.8329 167.553 72.0363 168.033C72.2225 168.466 72.3956 168.878 72.7116 169.16C72.9496 169.372 73.2527 169.497 73.5773 169.632C73.85 169.744 74.1357 169.861 74.3911 170.039C75.2871 170.663 75.5641 171.793 75.7676 172.898C75.7849 172.993 75.7416 173.084 75.6593 173.132H75.6464ZM25.7465 159.141C22.4092 161.06 21.2535 165.339 23.171 168.679L28.2528 177.528C30.1703 180.868 34.447 182.024 37.7843 180.105L59.9423 167.362C60.0289 167.31 60.1414 167.327 60.2107 167.401C61.3621 168.579 62.9203 169.276 64.4786 169.315C64.8812 169.324 65.2924 169.294 65.6906 169.268C66.1668 169.233 66.6559 169.198 67.1494 169.229C68.1363 169.285 69.4219 169.649 70.0668 170.329C70.4304 170.71 71.0667 170.81 71.8069 170.927C72.8198 171.083 74.0448 171.273 75.1659 172.252C74.9841 171.503 74.7027 170.81 74.127 170.411C73.9106 170.26 73.6595 170.16 73.3955 170.047C73.0535 169.905 72.6986 169.762 72.4043 169.497C72.0147 169.151 71.8112 168.674 71.6164 168.211C71.426 167.76 71.2442 167.336 70.9066 167.059C70.5386 166.76 70.0452 166.678 69.5257 166.595C69.2314 166.548 68.9284 166.5 68.6384 166.409C67.7424 166.127 66.9459 165.413 66.4005 164.403C65.972 163.615 65.7296 162.731 65.5391 161.969C65.5305 161.93 65.5305 161.891 65.5391 161.852C66.0542 160.029 65.8162 158.118 64.8725 156.477L59.7908 147.627C57.8732 144.288 53.5966 143.131 50.2593 145.05L25.7509 159.141H25.7465Z"
              fill="#0067E0"/>
        <path d="M30.616 166.526C30.5814 166.548 30.5338 166.535 30.5164 166.5C30.4948 166.465 30.5078 166.418 30.5424 166.4L51.9645 153.986C51.9992 153.965 52.0468 153.978 52.0641 154.012C52.0857 154.047 52.0727 154.094 52.0381 154.112L30.616 166.526Z"
              fill="#0067E0"/>
        <path d="M34.2044 172.772C34.1697 172.794 34.1221 172.781 34.1048 172.746C34.0832 172.711 34.0962 172.664 34.1308 172.646L55.5529 160.232C55.5875 160.211 55.6352 160.224 55.6525 160.258C55.6741 160.293 55.6611 160.341 55.6265 160.358L34.2044 172.772Z"
              fill="#0067E0"/>
        <path d="M34.8714 168.233C34.8367 168.254 34.7891 168.241 34.7718 168.207C34.7502 168.172 34.7632 168.124 34.7978 168.107L51.3026 158.521C51.3373 158.5 51.3849 158.513 51.4022 158.547C51.4238 158.582 51.4109 158.63 51.3762 158.647L34.8714 168.233Z"
              fill="#0067E0"/>
    </g>
    <g opacity="0.25">
        <path d="M65.6125 149.78C63.7772 150.837 61.5696 151.262 59.4962 150.82C55.8775 150.044 52.9038 146.67 52.5835 142.967C52.2718 139.402 54.5876 136.071 56.9467 134.715C56.9683 134.702 56.9856 134.693 57.0073 134.68C60.2277 132.874 64.6559 133.489 67.305 136.114C69.9497 138.735 70.6336 143.175 68.8979 146.445C68.1533 147.844 66.989 148.988 65.6125 149.78ZM57.1674 135.101C54.9296 136.387 52.7306 139.545 53.025 142.928C53.3323 146.445 56.1545 149.65 59.5871 150.382C63.024 151.119 66.8548 149.334 68.504 146.237C70.1531 143.136 69.5039 138.917 66.9933 136.43C64.4784 133.944 60.2797 133.355 57.2237 135.07C57.2064 135.079 57.1847 135.092 57.1674 135.105V135.101Z"
              fill="#0067E0"/>
        <path d="M62.3661 138.61C62.5393 138.458 62.812 138.445 63.0024 138.549C63.1626 138.636 63.2751 138.8 63.2795 138.982C63.2838 139.164 63.1842 139.359 63.0154 139.459C62.7687 139.606 62.4267 139.524 62.2925 139.298C62.1584 139.073 62.2146 138.74 62.3661 138.61Z"
              fill="#0067E0"/>
        <path d="M57.2758 141.533C57.4489 141.382 57.7216 141.369 57.9121 141.473C58.0722 141.559 58.1848 141.724 58.1891 141.906C58.1978 142.088 58.0939 142.283 57.9251 142.382C57.6784 142.53 57.3364 142.447 57.2022 142.222C57.068 141.997 57.1243 141.663 57.2758 141.533Z"
              fill="#0067E0"/>
        <path d="M63.3443 145.952C61.2276 147.169 59.7732 145.774 59.7602 145.757C59.6737 145.67 59.6737 145.531 59.7602 145.44C59.8468 145.354 59.9853 145.354 60.0762 145.44C60.1238 145.488 61.3099 146.61 63.1279 145.566C64.9459 144.522 64.6082 142.954 64.6039 142.937C64.5823 142.815 64.6645 142.703 64.7857 142.681C64.9069 142.66 65.0195 142.742 65.0411 142.863C65.0411 142.88 65.3354 144.808 63.3486 145.947L63.3443 145.952Z"
              fill="#0067E0"/>
    </g>
    <g opacity="0.25">
        <path d="M221.225 123.939L197.946 130.024C196.647 130.367 195.617 129.37 195.405 128.556L191.639 113.669C191.431 112.872 191.973 111.741 192.981 111.477L216.078 105.391C217.061 105.135 218.368 105.655 218.671 106.82L222.593 121.838C222.796 122.609 222.251 123.674 221.225 123.943V123.939ZM216.191 105.82L193.094 111.906C192.358 112.096 191.916 112.975 192.068 113.556L195.834 128.443C195.972 128.972 196.721 129.886 197.833 129.596L221.112 123.51C221.879 123.311 222.307 122.505 222.16 121.95L218.238 106.933C218.009 106.054 216.966 105.62 216.191 105.824V105.82Z"
              fill="#0067E0"/>
        <path d="M207.906 119.85C207.612 119.928 207.305 119.962 206.984 119.941C206.447 119.91 205.932 119.715 205.517 119.56C200.794 117.792 196.206 115.618 191.873 113.097C191.765 113.036 191.73 112.898 191.791 112.794C191.851 112.685 191.99 112.651 192.094 112.711C196.405 115.219 200.972 117.385 205.668 119.139C206.157 119.321 206.569 119.464 207.006 119.49C208.534 119.581 209.776 118.204 210.689 116.995C213.317 113.513 215.711 109.822 217.806 106.023C217.866 105.915 218 105.876 218.109 105.937C218.217 105.997 218.256 106.132 218.195 106.24C216.087 110.056 213.681 113.768 211.044 117.264C210.248 118.321 209.205 119.499 207.898 119.841L207.906 119.85Z"
              fill="#0067E0"/>
        <path d="M196.851 128.478C196.851 128.478 196.808 128.478 196.79 128.465C196.756 128.443 196.747 128.396 196.773 128.361C198.829 125.424 200.985 122.496 203.179 119.655C203.205 119.62 203.253 119.616 203.283 119.642C203.313 119.668 203.322 119.715 203.296 119.746C201.101 122.583 198.95 125.511 196.894 128.443C196.885 128.456 196.868 128.469 196.851 128.474V128.478Z"
              fill="#0067E0"/>
        <path d="M221.398 122.44C221.398 122.44 221.363 122.44 221.346 122.436C218.191 120.738 214.948 119.096 211.715 117.55C211.676 117.533 211.663 117.489 211.68 117.45C211.698 117.411 211.741 117.398 211.78 117.416C215.013 118.962 218.255 120.608 221.415 122.306C221.45 122.323 221.463 122.371 221.446 122.406C221.437 122.423 221.42 122.436 221.398 122.44Z"
              fill="#0067E0"/>
    </g>
    <g opacity="0.25">
        <path d="M184.38 182.285C184.367 181.081 184.423 179.829 185.237 178.988C185.471 178.75 185.744 178.568 186.012 178.391C186.328 178.183 186.627 177.983 186.834 177.711C187.112 177.347 187.211 176.875 187.319 176.372C187.436 175.822 187.557 175.259 187.93 174.804C188.336 174.315 188.921 174.098 189.488 173.89C189.774 173.786 190.068 173.678 190.323 173.535C191.107 173.106 191.721 172.287 192.055 171.218C192.111 171.04 192.159 170.862 192.202 170.667L191.254 170.343C187.09 168.922 184.852 164.378 186.272 160.207C187.692 156.04 192.232 153.8 196.401 155.221L233.895 167.999C238.059 169.42 240.297 173.964 238.877 178.135C237.457 182.302 232.917 184.541 228.748 183.121L200.119 173.362C199.093 174.995 197.427 176.199 195.63 176.602C195.184 176.701 194.734 176.758 194.293 176.81C193.799 176.87 193.288 176.931 192.804 177.057C191.89 177.29 190.691 177.879 190.224 178.62C189.834 179.235 189.111 179.495 188.276 179.798C187.081 180.232 185.726 180.721 184.787 182.38C184.739 182.467 184.636 182.51 184.536 182.484C184.532 182.484 184.523 182.484 184.519 182.48C184.432 182.449 184.367 182.367 184.367 182.272L184.38 182.285ZM196.258 155.659C192.323 154.32 188.033 156.43 186.696 160.367C185.358 164.304 187.466 168.597 191.401 169.935L192.535 170.321C192.639 170.356 192.704 170.464 192.682 170.572C192.626 170.854 192.561 171.114 192.483 171.361C192.111 172.539 191.423 173.453 190.54 173.933C190.254 174.089 189.942 174.202 189.644 174.315C189.107 174.514 188.601 174.7 188.272 175.094C187.969 175.463 187.865 175.952 187.752 176.467C187.64 176.992 187.527 177.537 187.185 177.983C186.93 178.317 186.588 178.547 186.254 178.767C185.995 178.936 185.752 179.097 185.553 179.305C185.012 179.859 184.865 180.673 184.83 181.531C185.813 180.236 187.081 179.777 188.129 179.396C188.886 179.123 189.544 178.884 189.851 178.399C190.388 177.55 191.67 176.905 192.695 176.641C193.206 176.511 193.734 176.446 194.241 176.381C194.669 176.329 195.111 176.272 195.535 176.182C197.271 175.796 198.877 174.605 199.829 172.998C199.881 172.907 199.993 172.868 200.093 172.903L228.891 182.718C232.826 184.056 237.115 181.947 238.453 178.009C239.79 174.072 237.682 169.78 233.748 168.441L196.253 155.663L196.258 155.659Z"
              fill="#0067E0"/>
        <path d="M225.956 177.256C225.84 177.13 225.627 176.896 227.281 174.726C226.22 173.401 225.84 172.582 226.147 172.287C226.471 171.975 227.675 172.383 228.692 172.807C229.263 171.915 229.982 170.919 230.35 170.867C230.441 170.854 230.527 170.88 230.592 170.94C230.939 171.256 230.852 172.694 230.757 173.643C232.969 174.366 232.973 174.713 232.977 174.847C232.977 174.99 232.986 175.371 230.64 175.952C230.592 178.676 230.441 178.694 230.233 178.715C230.107 178.728 229.774 178.767 228.541 176.727C227.636 177.134 226.588 177.511 226.121 177.355C226.056 177.334 226.004 177.299 225.961 177.256H225.956ZM228.813 176.333C229.237 177.048 229.783 177.845 230.073 178.157C230.133 177.706 230.177 176.692 230.194 175.779C230.194 175.679 230.268 175.588 230.363 175.566C231.216 175.363 232.194 175.046 232.475 174.86C232.203 174.661 231.263 174.284 230.441 174.02C230.337 173.985 230.276 173.89 230.289 173.782C230.398 172.842 230.428 171.742 230.328 171.373C230.051 171.612 229.441 172.456 228.96 173.21C228.9 173.301 228.783 173.34 228.683 173.297C227.714 172.881 226.744 172.582 226.471 172.616C226.506 172.889 227.056 173.756 227.731 174.587C227.796 174.665 227.796 174.782 227.731 174.865C227.125 175.653 226.467 176.619 226.337 176.965C226.649 176.978 227.601 176.671 228.519 176.246C228.571 176.22 228.631 176.22 228.683 176.238C228.731 176.255 228.774 176.29 228.805 176.333H228.813Z"
              fill="#0067E0"/>
        <path d="M214.797 173.453C214.68 173.327 214.468 173.093 216.122 170.923C215.061 169.598 214.68 168.779 214.988 168.485C215.312 168.173 216.516 168.58 217.533 169.004C218.104 168.112 218.823 167.116 219.191 167.064C219.282 167.051 219.368 167.077 219.433 167.137C219.779 167.454 219.693 168.892 219.598 169.84C221.809 170.564 221.814 170.91 221.818 171.045C221.818 171.187 221.827 171.569 219.481 172.149C219.433 174.874 219.282 174.891 219.074 174.913C218.948 174.926 218.615 174.965 217.381 172.924C216.477 173.332 215.429 173.708 214.962 173.552C214.897 173.531 214.845 173.496 214.802 173.453H214.797ZM217.658 172.53C218.083 173.245 218.628 174.042 218.918 174.354C218.979 173.903 219.022 172.89 219.039 171.976C219.039 171.876 219.113 171.785 219.208 171.764C220.061 171.56 221.039 171.244 221.32 171.058C221.048 170.858 220.108 170.481 219.286 170.217C219.182 170.183 219.121 170.087 219.134 169.979C219.243 169.039 219.273 167.939 219.173 167.571C218.896 167.809 218.286 168.653 217.81 169.407C217.749 169.498 217.632 169.537 217.533 169.494C216.563 169.078 215.594 168.779 215.321 168.814C215.356 169.087 215.905 169.953 216.581 170.785C216.646 170.863 216.646 170.98 216.581 171.062C215.975 171.85 215.317 172.816 215.187 173.163C215.498 173.176 216.451 172.868 217.368 172.444C217.42 172.418 217.481 172.418 217.533 172.435C217.58 172.452 217.624 172.487 217.654 172.53H217.658Z"
              fill="#0067E0"/>
        <path d="M203.642 169.654C203.526 169.528 203.313 169.294 204.967 167.124C203.906 165.799 203.526 164.98 203.833 164.686C204.158 164.374 205.361 164.781 206.378 165.206C206.949 164.313 207.668 163.317 208.036 163.265C208.127 163.252 208.213 163.278 208.278 163.339C208.625 163.655 208.538 165.093 208.443 166.041C210.655 166.765 210.659 167.111 210.663 167.246C210.663 167.389 210.672 167.77 208.326 168.35C208.278 171.075 208.127 171.092 207.919 171.114C207.794 171.127 207.46 171.166 206.227 169.126C205.322 169.533 204.274 169.91 203.807 169.754C203.742 169.732 203.69 169.697 203.647 169.654H203.642ZM206.499 168.727C206.923 169.442 207.469 170.239 207.759 170.551C207.819 170.1 207.863 169.087 207.88 168.173C207.88 168.073 207.954 167.982 208.049 167.96C208.902 167.757 209.88 167.441 210.161 167.254C209.889 167.055 208.949 166.678 208.127 166.414C208.023 166.379 207.962 166.284 207.975 166.176C208.084 165.236 208.114 164.136 208.014 163.767C207.737 164.006 207.127 164.85 206.646 165.604C206.586 165.695 206.469 165.734 206.369 165.691C205.4 165.275 204.43 164.976 204.158 165.011C204.192 165.283 204.742 166.15 205.417 166.981C205.482 167.059 205.482 167.176 205.417 167.259C204.811 168.047 204.153 169.013 204.023 169.359C204.335 169.372 205.287 169.065 206.205 168.64C206.257 168.614 206.317 168.614 206.369 168.632C206.417 168.649 206.46 168.684 206.491 168.727H206.499Z"
              fill="#0067E0"/>
        <path d="M192.483 165.851C192.366 165.726 192.154 165.492 193.808 163.322C192.747 161.996 192.366 161.178 192.674 160.883C192.998 160.571 194.202 160.978 195.219 161.403C195.79 160.51 196.509 159.514 196.877 159.462C196.968 159.449 197.054 159.475 197.119 159.536C197.465 159.852 197.379 161.29 197.284 162.239C199.496 162.962 199.5 163.309 199.504 163.443C199.504 163.586 199.513 163.967 197.167 164.547C197.119 167.272 196.968 167.289 196.76 167.311C196.634 167.324 196.301 167.363 195.067 165.323C194.163 165.73 193.115 166.107 192.648 165.951C192.583 165.929 192.531 165.895 192.488 165.851H192.483ZM195.344 164.924C195.769 165.639 196.314 166.436 196.604 166.748C196.665 166.297 196.708 165.284 196.725 164.37C196.725 164.27 196.799 164.179 196.894 164.158C197.747 163.954 198.725 163.638 199.006 163.452C198.734 163.252 197.794 162.876 196.972 162.611C196.868 162.577 196.807 162.481 196.82 162.373C196.929 161.433 196.959 160.333 196.859 159.965C196.582 160.203 195.972 161.048 195.496 161.801C195.435 161.892 195.318 161.931 195.219 161.888C194.249 161.472 193.28 161.173 193.007 161.208C193.042 161.481 193.591 162.347 194.267 163.179C194.332 163.257 194.332 163.374 194.267 163.456C193.661 164.244 193.003 165.21 192.873 165.557C193.184 165.57 194.137 165.262 195.054 164.838C195.106 164.812 195.167 164.812 195.219 164.829C195.267 164.846 195.31 164.881 195.34 164.924H195.344Z"
              fill="#0067E0"/>
    </g>
    <g opacity="0.25">
        <path d="M208.499 243.143C206.975 243.58 205.339 243.619 203.819 243.182C200.266 242.151 197.556 238.569 197.521 234.843C197.487 231.114 200.127 227.506 203.664 226.449C206.282 225.669 210.33 226.31 212.689 229.039C215.117 231.85 215.468 236.338 213.507 239.474C212.381 241.271 210.537 242.562 208.503 243.143H208.499ZM203.789 226.878C200.434 227.878 197.928 231.305 197.963 234.839C197.997 238.374 200.569 241.774 203.941 242.753C207.308 243.727 211.256 242.216 213.122 239.236C214.987 236.26 214.654 231.998 212.347 229.329C210.109 226.743 206.265 226.128 203.785 226.873L203.789 226.878Z"
              fill="#0067E0"/>
        <path d="M202.746 233.032C202.517 233.054 202.318 233.236 202.261 233.444C202.209 233.621 202.253 233.816 202.378 233.946C202.504 234.076 202.711 234.137 202.902 234.089C203.179 234.016 203.356 233.712 203.291 233.461C203.227 233.21 202.945 233.015 202.746 233.032Z"
              fill="#0067E0"/>
        <path d="M208.391 231.417C208.161 231.439 207.962 231.621 207.906 231.829C207.854 232.006 207.897 232.201 208.023 232.331C208.148 232.461 208.356 232.522 208.546 232.474C208.823 232.4 209.001 232.097 208.936 231.846C208.871 231.595 208.59 231.4 208.391 231.417Z"
              fill="#0067E0"/>
        <path d="M207.33 238.85C205.127 239.482 203.949 237.932 203.936 237.919C203.863 237.819 203.884 237.68 203.984 237.607C204.083 237.533 204.222 237.555 204.296 237.654C204.339 237.711 205.313 238.967 207.209 238.426C209.221 237.849 209.243 236.216 209.243 236.147C209.243 236.026 209.343 235.926 209.464 235.922C209.585 235.922 209.685 236.022 209.689 236.143C209.689 236.164 209.676 238.179 207.33 238.85Z"
              fill="#0067E0"/>
        <path d="M228.25 237.312C226.726 237.75 225.09 237.789 223.571 237.347C220.017 236.316 217.307 232.734 217.273 229.009C217.238 225.279 219.879 221.671 223.415 220.614C223.437 220.605 223.458 220.601 223.484 220.592C226.099 219.843 230.103 220.497 232.44 223.204C234.868 226.016 235.219 230.499 233.258 233.639C232.133 235.437 230.289 236.727 228.254 237.308L228.25 237.312ZM223.545 221.043C220.19 222.044 217.684 225.47 217.719 229.004C217.753 232.539 220.324 235.943 223.696 236.918C227.064 237.893 231.012 236.381 232.882 233.401C234.747 230.425 234.414 226.163 232.107 223.495C229.891 220.93 226.094 220.307 223.61 221.021C223.588 221.026 223.567 221.034 223.545 221.039V221.043Z"
              fill="#0067E0"/>
        <path d="M222.498 227.202C222.268 227.224 222.069 227.406 222.013 227.614C221.961 227.791 222.004 227.986 222.13 228.116C222.255 228.246 222.463 228.307 222.653 228.259C222.93 228.185 223.108 227.882 223.043 227.631C222.978 227.38 222.697 227.185 222.498 227.202Z"
              fill="#0067E0"/>
        <path d="M228.142 225.587C227.913 225.609 227.714 225.791 227.657 225.999C227.605 226.176 227.649 226.371 227.774 226.501C227.9 226.631 228.107 226.692 228.298 226.644C228.575 226.57 228.752 226.267 228.687 226.016C228.623 225.765 228.341 225.57 228.142 225.587Z"
              fill="#0067E0"/>
        <path d="M224.371 233.713C224.345 233.722 224.32 233.722 224.289 233.722C224.168 233.709 224.077 233.6 224.09 233.479C224.099 233.401 224.294 231.591 226.462 230.876C228.644 230.153 229.83 231.712 229.843 231.725C229.916 231.825 229.895 231.963 229.795 232.037C229.696 232.11 229.557 232.089 229.483 231.989C229.445 231.933 228.471 230.672 226.601 231.296C224.705 231.924 224.536 233.505 224.536 233.518C224.527 233.613 224.462 233.687 224.376 233.713H224.371Z"
              fill="#0067E0"/>
    </g>
    <g opacity="0.25">
        <path d="M54.8086 285.47C54.2373 285.332 53.6616 285.159 53.0859 284.946C49.6966 283.694 46.1342 279.263 46.2381 274.663C46.329 270.527 48.437 266.572 51.7397 264.345C55.2805 261.954 60.1198 261.656 63.7861 263.605C68.1536 265.926 70.7941 269.825 70.8503 274.031C70.8979 277.903 68.8116 281.806 65.4007 284.219C63.5956 285.496 59.3233 286.566 54.813 285.47H54.8086ZM61.1024 263.319C58.107 262.591 54.7394 263.146 52.1206 264.913C48.9997 267.018 47.0085 270.76 46.922 274.681C46.8267 278.986 50.1554 283.131 53.3239 284.305C58.6654 286.28 63.4961 284.725 65.0024 283.66C68.2315 281.377 70.2097 277.691 70.1621 274.039C70.1101 270.089 67.6082 266.416 63.4615 264.211C62.7169 263.817 61.9248 263.518 61.1024 263.319Z"
              fill="#0067E0"/>
        <path d="M57.328 279.84C57.2284 279.814 57.1419 279.749 57.0986 279.653L53.2245 271.393C53.1509 271.233 53.2072 271.047 53.3587 270.956L55.6918 269.544C55.774 269.492 55.8779 269.479 55.9688 269.509C56.0597 269.539 56.1376 269.604 56.1809 269.691L58.2716 274.213L63.111 269.517C63.1845 269.448 63.2841 269.414 63.3837 269.422C63.4832 269.431 63.5741 269.487 63.6304 269.569L65.1843 271.831C65.2796 271.965 65.2623 272.151 65.1454 272.268L57.6483 279.753C57.5704 279.831 57.4578 279.866 57.3496 279.848C57.341 279.848 57.3366 279.848 57.328 279.844V279.84ZM53.9777 271.38L57.5141 278.921L64.4658 271.982L63.3014 270.289L58.4058 275.04C58.3279 275.118 58.2153 275.153 58.1071 275.131C57.9946 275.11 57.908 275.04 57.8604 274.941L55.7264 270.328L53.982 271.384L53.9777 271.38Z"
              fill="#0067E0"/>
    </g>
    <g opacity="0.25">
        <path d="M57.6609 225.037C57.3276 225.288 56.9943 225.501 56.6913 225.682C54.791 226.835 52.8518 227.541 50.9386 227.788C48.5838 228.086 40.6496 228.689 37.3339 223.842C36.8621 223.148 36.8837 222.269 36.953 221.429C37.217 218.016 37.9572 214.533 38.6671 211.163C38.8878 210.124 39.1173 209.045 39.325 208.001C39.6367 206.424 40.2037 205.337 41.0088 204.765C41.7231 204.263 43.4675 204.259 44.2423 204.371C44.6751 204.432 45.8742 204.592 47.3978 204.791C50.2936 205.173 54.2586 205.692 56.951 206.078C58.6002 206.316 59.5654 207.048 59.8078 207.486C59.8208 207.512 59.8295 207.538 59.8338 207.564L59.929 208.265C60.5047 212.406 61.0501 216.322 60.1974 220.576C60.0026 221.554 59.678 222.806 58.9162 223.816C58.5526 224.301 58.1067 224.699 57.6565 225.037H57.6609ZM37.7018 223.59C40.8747 228.229 48.5925 227.636 50.8823 227.346C52.735 227.112 54.6136 226.423 56.4619 225.301C57.1285 224.898 57.9725 224.335 58.5612 223.547C59.2668 222.607 59.5741 221.42 59.7602 220.485C60.5956 216.305 60.0805 212.605 59.4875 208.322L59.3966 207.668C59.1932 207.36 58.3664 206.728 56.8861 206.515C54.1937 206.13 50.233 205.61 47.3372 205.229C45.8136 205.03 44.6102 204.869 44.1774 204.809C43.3203 204.687 41.7966 204.748 41.2642 205.125C40.5543 205.627 40.0522 206.619 39.7622 208.083C39.5544 209.132 39.325 210.21 39.1043 211.254C38.3944 214.607 37.6585 218.076 37.3988 221.459C37.3382 222.252 37.3122 223.014 37.7061 223.586L37.7018 223.59Z"
              fill="#0067E0"/>
        <path d="M66.9282 222.897L50.3541 235.329C50.2545 235.402 50.116 235.381 50.0424 235.285L34.399 214.399C34.3254 214.299 34.347 214.161 34.4423 214.087L51.0164 201.655C51.1159 201.582 51.2544 201.603 51.328 201.699L66.9715 222.585C67.0451 222.685 67.0234 222.824 66.9282 222.897ZM50.2632 234.839L66.4824 222.676L51.1029 202.145L34.8838 214.308L50.2632 234.839Z"
              fill="#0067E0"/>
        <path d="M69.192 222.98L49.9385 237.421C48.865 238.227 47.5361 237.698 47.0297 237.023C46.6445 236.503 37.5761 224.275 37.2298 223.751C37.1779 223.673 37.1822 223.564 37.2428 223.491C37.2947 223.426 37.3813 223.395 37.4592 223.413C37.6324 223.439 46.3285 224.626 52.9815 224.426C53.5052 224.409 53.9381 224.387 54.3536 224.244C55.8037 223.751 56.4357 222.005 56.8209 220.541C57.9247 216.374 59.3575 207.728 59.3835 207.568C59.3878 207.52 59.4094 207.477 59.4441 207.442C59.509 207.377 59.6042 207.356 59.6908 207.39C59.7947 207.434 59.9375 207.49 64.8375 214.035C67.2398 217.245 69.6378 220.485 69.6638 220.515C70.14 221.152 70.0404 222.343 69.192 222.98ZM37.8964 223.911C39.5369 226.163 47.3024 236.637 47.389 236.754C47.7179 237.191 48.7568 237.75 49.6745 237.066L68.928 222.624C69.5643 222.148 69.6552 221.243 69.3089 220.784C65.9499 216.244 61.0023 209.617 59.7557 208.088C59.7168 208.309 59.6648 208.625 59.5869 209.071C59.4484 209.868 59.232 211.12 58.9679 212.549C58.5091 215.031 57.8425 218.449 57.2581 220.654C56.8426 222.226 56.1543 224.102 54.5008 224.665C53.9901 224.838 53.4403 224.855 52.9988 224.868C47.2937 225.037 39.9482 224.175 37.8964 223.911Z"
              fill="#0067E0"/>
        <path d="M55.2539 216.469L47.4235 222.343C47.3888 222.369 47.3455 222.36 47.3196 222.33C47.2936 222.3 47.3023 222.252 47.3326 222.226L55.163 216.352C55.1976 216.326 55.2409 216.335 55.2668 216.365C55.2928 216.396 55.2842 216.443 55.2539 216.469Z"
              fill="#0067E0"/>
        <path d="M55.3405 219.263L50.6007 222.819C50.5661 222.845 50.5228 222.837 50.4968 222.806C50.4709 222.776 50.4795 222.728 50.5098 222.702L55.2496 219.146C55.2842 219.12 55.3275 219.129 55.3535 219.159C55.3795 219.19 55.3708 219.237 55.3405 219.263Z"
              fill="#0067E0"/>
        <path d="M49.8738 217.326C49.8305 217.361 49.7742 217.378 49.7136 217.37C48.19 217.184 44.3375 216.274 43.8874 216.088C43.4588 215.91 42.8745 215.568 42.5152 214.957C41.9438 213.983 42.2339 212.605 43.1602 211.886C43.9263 211.293 44.8829 211.332 45.6275 211.7C45.5019 210.924 45.6794 209.92 46.372 209.413C47.2204 208.793 48.5492 208.559 49.4626 209.521C49.8392 209.92 50.1465 210.613 50.2807 211.384C50.627 213.363 50.1941 215.871 49.9863 217.08L49.9647 217.192C49.956 217.248 49.9214 217.3 49.8781 217.331L49.8738 217.326ZM43.4502 212.22C43.4502 212.22 43.4372 212.233 43.4285 212.237C42.684 212.813 42.4416 213.957 42.8961 214.732C43.1948 215.239 43.6883 215.525 44.0562 215.676C44.4155 215.823 47.9129 216.664 49.5578 216.898C49.7656 215.68 50.1595 213.302 49.8348 211.453C49.718 210.777 49.4453 210.153 49.1336 209.824C48.4064 209.058 47.3243 209.257 46.6317 209.768C46.6317 209.768 46.623 209.772 46.623 209.777C45.9305 210.296 45.9175 211.527 46.2161 212.12C46.2638 212.215 46.2378 212.332 46.1555 212.397C46.0646 212.462 45.9521 212.462 45.8742 212.393C45.2595 211.864 44.238 211.643 43.4588 212.224L43.4502 212.22Z"
              fill="#0067E0"/>
    </g>
    <path opacity="0.4" d="M155.197 369L148.968 333.919L160.88 334.14L170.715 369H155.197Z" fill="#0061C1"/>
    <path d="M84.4896 253.04C83.8013 253.5 83.0914 253.924 82.3469 254.279C79.3992 255.683 75.8064 256.441 74.0707 259.204C72.4778 261.738 73.1747 265.286 75.2351 267.456C77.2911 269.626 80.4207 270.544 83.4117 270.471C83.7667 270.462 84.1303 270.432 84.4896 270.38V253.036V253.04Z"
          fill="#FAD0C2"/>
    <g style="mix-blend-mode:multiply" opacity="0.5">
        <path d="M84.4894 253.036C83.8011 253.495 83.0912 253.924 82.3467 254.279C81.9745 254.457 81.5935 254.621 81.2083 254.786C78.5246 255.908 75.5898 256.787 74.0748 259.204C72.4819 261.738 73.1788 265.286 75.2349 267.456C75.8149 268.071 76.4772 268.578 77.2044 269.002C79.044 270.068 81.2646 270.527 83.4115 270.475C83.7665 270.466 84.1301 270.436 84.4937 270.384V253.04L84.4894 253.036Z"
              fill="#FAD0C2"/>
    </g>
    <g style="mix-blend-mode:multiply" opacity="0.5">
        <path d="M84.4895 253.036C83.8013 253.495 83.0914 253.924 82.3469 254.279C81.9746 254.457 81.5937 254.621 81.2085 254.786C81.0699 258.026 80.741 264.428 80.2259 266.048C79.8839 267.109 78.5204 268.179 77.2002 269.002C79.0398 270.068 81.2604 270.527 83.4074 270.475C83.7623 270.466 84.1259 270.436 84.4895 270.384V253.04V253.036Z"
              fill="#F39994"/>
    </g>
    <path d="M84.4896 223.517C79.5204 225.769 75.4731 230.469 74.9883 235.961C74.8325 237.728 75.0533 239.561 75.8237 241.155C75.8843 241.28 75.9449 241.402 76.0142 241.523C77.1396 243.572 79.4857 245.231 81.8794 245.049C82.7668 244.979 83.6411 244.802 84.4852 244.538V223.521L84.4896 223.517Z"
          fill="#FAD0C2"/>
    <g style="mix-blend-mode:multiply" opacity="0.5">
        <path d="M84.4896 223.513C83.3772 224.015 82.3124 224.639 81.3211 225.371C77.8886 227.909 75.365 231.699 74.9884 235.962C74.8326 237.729 75.0577 239.561 75.8238 241.155C75.8801 241.281 75.945 241.402 76.0143 241.523C76.2307 241.917 76.4948 242.299 76.7978 242.654C78.0487 244.144 79.949 245.192 81.8795 245.045C82.7669 244.975 83.6412 244.798 84.4896 244.534V223.513Z"
              fill="#FAD0C2"/>
    </g>
    <g style="mix-blend-mode:multiply" opacity="0.5">
        <path d="M84.4897 223.513C83.3773 224.015 82.3125 224.639 81.3212 225.371C81.3429 228.793 80.936 237.2 76.7979 242.654C78.0488 244.144 79.9491 245.192 81.8796 245.045C82.767 244.975 83.6413 244.798 84.4897 244.534V223.513Z"
              fill="#FAD0C2"/>
    </g>
    <path d="M84.4894 198.289C82.9484 199.359 81.3252 200.317 79.7669 201.361C77.2563 203.046 75.5379 204.726 74.6202 207.676C73.9796 209.738 74.1268 212.029 75.0185 213.991C76.7802 217.855 80.559 219.388 84.4894 219.596V198.285V198.289Z"
          fill="#FAD0C2"/>
    <g style="mix-blend-mode:multiply" opacity="0.5">
        <path d="M84.4894 198.285C83.5068 198.965 82.4939 199.606 81.4854 200.247C80.9097 200.611 80.334 200.984 79.7669 201.361C77.2563 203.046 75.5379 204.726 74.6202 207.676C73.9796 209.733 74.1268 212.029 75.0185 213.991C75.1483 214.277 75.2912 214.55 75.4427 214.81C77.3386 218.076 80.8491 219.401 84.4894 219.601V198.289V198.285Z"
              fill="#FAD0C2"/>
    </g>
    <g style="mix-blend-mode:multiply" opacity="0.5">
        <path d="M84.4897 198.285C83.5071 198.965 82.4942 199.606 81.4856 200.247C81.3817 204.497 80.4511 211.969 75.4473 214.81C77.3432 218.076 80.8537 219.401 84.494 219.601V198.289L84.4897 198.285Z"
              fill="#FAD0C2"/>
    </g>
    <path d="M120.689 282.001C120.689 282.001 126.221 293.45 131.749 300.164C131.749 300.164 143.523 344.402 183.506 345.524L164.144 278.844L120.689 282.001Z"
          fill="#FAD0C2"/>
    <g style="mix-blend-mode:multiply" opacity="0.5">
        <path d="M120.689 282.001C120.689 282.001 126.221 293.449 131.753 300.163C131.753 300.163 142.782 341.603 179.744 345.285C180.974 345.41 182.224 345.488 183.51 345.523L169.083 295.836L164.148 278.839L120.689 281.997V282.001Z"
              fill="#FAD0C2"/>
    </g>
    <g style="mix-blend-mode:multiply" opacity="0.7">
        <path d="M145.237 312.811C145.237 312.811 142.67 317.216 142.012 319.716C142.055 319.599 142.8 317.745 145.795 316.021C145.795 316.021 150.107 330.774 159.326 335.708C164.477 338.463 173.113 342.37 179.74 345.28C180.969 345.406 182.22 345.484 183.506 345.519L169.079 295.832L147.211 290.694C147.211 290.694 136.48 292.141 132.264 299.05C132.385 298.933 136.316 295.234 142.995 295.303C142.995 295.303 142.514 307.553 145.233 312.807L145.237 312.811Z"
              fill="#F39994"/>
    </g>
    <path d="M225.999 369.001H162.135L157.041 336.952L156.543 333.828L156.383 332.811L178.428 328.016L204.837 322.268C206.023 322.666 220.125 343.869 220.125 343.869L226.004 368.996L225.999 369.001Z"
          fill="#FAD0C2"/>
    <path d="M82.0957 148.706H83.3596V171.473H82.0957C81.7234 171.473 81.4204 171.17 81.4204 170.797V149.378C81.4204 149.005 81.7234 148.702 82.0957 148.702V148.706Z"
          fill="#13110C"/>
    <path d="M174.662 138.614H173.398V130.986H174.662C175.034 130.986 175.337 131.289 175.337 131.662V137.942C175.337 138.315 175.034 138.618 174.662 138.618V138.614Z"
          fill="#13110C"/>
    <path d="M174.662 158.214H173.398V143.838H174.662C175.034 143.838 175.337 144.141 175.337 144.514V157.543C175.337 157.916 175.034 158.219 174.662 158.219V158.214Z"
          fill="#13110C"/>
    <path d="M174.662 175.904H173.398V161.527H174.662C175.034 161.527 175.337 161.831 175.337 162.203V175.232C175.337 175.605 175.034 175.908 174.662 175.908V175.904Z"
          fill="#13110C"/>
    <path d="M160.893 106.162H95.7395C88.3679 106.162 82.3901 112.135 82.3901 119.503V279.939C82.3901 287.307 88.3679 293.281 95.7395 293.281H160.893C168.265 293.281 174.238 287.307 174.238 279.939V119.503C174.238 112.135 168.26 106.162 160.893 106.162ZM170.265 221.334H86.4893V137.613H170.265V221.334Z"
          fill="#24211E"/>
    <path d="M157.058 107.921H99.5746C91.0603 107.921 84.1562 114.821 84.1562 123.333V276.106C84.1562 284.618 91.0603 291.518 99.5746 291.518H157.058C165.572 291.518 172.476 284.618 172.476 276.106V123.333C172.476 114.821 165.572 107.921 157.058 107.921ZM170.265 221.334H86.4894V137.614H170.265V221.334Z"
          fill="#13110C"/>
    <path d="M157.798 109.684H98.83C91.6966 109.684 85.9136 115.462 85.9136 122.592V276.851C85.9136 283.981 91.6966 289.759 98.83 289.759H157.798C164.932 289.759 170.715 283.981 170.715 276.851V122.592C170.715 115.462 164.932 109.684 157.798 109.684ZM170.265 221.334H86.4893V137.613H170.265V221.334Z"
          fill="#13110C"/>
    <path d="M170.264 221.334L170.009 122.995C170.009 116.03 164.676 110.386 158.092 110.386H98.527C91.9475 110.386 86.6104 116.03 86.6104 122.995L86.4849 221.334H170.26H170.264Z"
          fill="white"/>
    <path d="M86.4937 220.108L86.6192 276.839C86.6192 283.583 91.952 289.049 98.5357 289.049H158.101C164.681 289.049 170.018 283.583 170.018 276.839L170.269 220.199L86.498 220.108H86.4937Z"
          fill="white"/>
    <g style="mix-blend-mode:screen">
        <path d="M85.4504 281.559V117.883C85.4504 114.439 87.0563 111.377 89.5626 109.389C86.3335 111.269 84.1519 114.764 84.1519 118.762V280.68C84.1519 284.678 86.3291 288.173 89.5626 290.053C87.0607 288.069 85.4504 285.003 85.4504 281.559Z"
              fill="#3B3835"/>
    </g>
    <g style="mix-blend-mode:screen">
        <path d="M171.178 281.559V117.883C171.178 114.439 169.572 111.377 167.066 109.389C170.295 111.269 172.477 114.764 172.477 118.762V280.68C172.477 284.678 170.299 288.173 167.066 290.053C169.568 288.069 171.178 285.003 171.178 281.559Z"
              fill="#3B3835"/>
    </g>
    <path opacity="0.5"
          d="M102.215 252.404H154.539C158.452 252.404 161.651 248.159 161.651 242.974C161.651 237.789 158.452 233.544 154.539 233.544H102.215C98.3018 233.544 95.103 237.789 95.103 242.974C95.103 248.159 98.3018 252.404 102.215 252.404Z"
          fill="#0067E0"/>
    <g style="mix-blend-mode:multiply" opacity="0.5">
        <path d="M112.041 245.096C112.621 243.528 113.478 242.064 114.573 240.799C115.928 239.24 117.867 237.919 119.923 238.174C121.183 238.33 122.308 239.067 123.235 239.937C125.97 242.502 127.295 246.179 129.178 249.428C131.797 253.941 135.632 257.744 140.168 260.322C142.116 261.43 144.185 262.318 146.072 263.518C147.959 264.722 149.7 266.303 150.574 268.365C151.409 270.349 151.375 272.58 151.323 274.733C151.21 279.506 151.093 284.279 150.981 289.053C150.976 289.287 150.968 289.521 150.964 289.754C150.951 290.344 150.938 290.928 150.92 291.517C150.92 291.673 150.912 291.838 150.912 291.994C150.903 292.414 150.881 292.852 150.834 293.28H140.432C140.038 287.039 141.861 278.155 141.861 278.155C137.909 275.521 130.883 266.485 130.883 266.485C107.942 259.581 111.803 245.872 112.045 245.096H112.041Z"
              fill="#B5CECF"/>
    </g>
    <path d="M132.944 262.739L144.942 276.509C144.942 276.509 140.843 313.336 156.383 332.815C171.922 352.294 215.602 345.186 215.602 345.186L220.121 343.869C220.121 343.869 211.957 312.547 209.057 286.225C206.161 259.902 204.053 240.951 196.942 228.58C191.232 218.648 180.095 204.423 175.918 199.2C174.892 197.913 174.29 197.177 174.29 197.177V245.166L174.143 250.043L170.572 254.34L169.667 255.432L168.23 257.16C168.23 257.16 152.955 241.744 145.315 239.379C137.675 237.01 132.147 239.907 122.663 236.745C113.179 233.588 104.228 255.051 132.935 262.743L132.944 262.739Z"
          fill="#FAD0C2"/>
    <g style="mix-blend-mode:multiply" opacity="0.5">
        <path d="M193.245 276.574C183.887 271.484 168.234 257.16 168.234 257.16L170.576 254.34L174.147 250.043L174.294 245.166V197.177C174.294 197.177 174.896 197.917 175.922 199.2V221.213C177.943 214.897 183.912 214.546 183.912 214.546C176.978 217.704 175.922 224.548 175.922 224.548V247.886C180.666 245.344 193.249 244.728 193.249 244.728C193.249 244.728 181.103 247.362 177.329 249.991C174.667 251.845 173.351 255.315 172.801 257.199C180.662 266.715 192.994 276.37 193.249 276.57L193.245 276.574Z"
              fill="#F39994"/>
    </g>
    <g opacity="0.5">
        <path d="M162.521 205.39V213.594H154.31V217.202H166.131V205.39H162.521Z" fill="#0067E0"/>
        <path d="M102.444 213.594H94.2331V205.39H90.6274V217.202H102.444V213.594Z" fill="#0067E0"/>
        <path d="M154.31 145.354H162.521V153.558H166.131V141.746H154.31V145.354Z" fill="#0067E0"/>
        <path d="M94.2331 153.558V145.354H102.444V141.746H90.6274V153.558H94.2331Z" fill="#0067E0"/>
    </g>
    <path opacity="0.05"
          d="M200.755 7.25488H61.245C59.6314 7.25488 58.3232 8.56391 58.3232 10.1787V15.1686C58.3232 16.7834 59.6314 18.0924 61.245 18.0924H200.755C202.369 18.0924 203.677 16.7834 203.677 15.1686V10.1787C203.677 8.56391 202.369 7.25488 200.755 7.25488Z"
          fill="#0067E0"/>
    <path opacity="0.15"
          d="M174.788 35.8262H45.9913C44.3848 35.8262 43.0825 37.1294 43.0825 38.737V47.0752C43.0825 48.6828 44.3848 49.986 45.9913 49.986H174.788C176.395 49.986 177.697 48.6828 177.697 47.0752V38.737C177.697 37.1294 176.395 35.8262 174.788 35.8262Z"
          fill="#0067E0"/>
    <path opacity="0.15"
          d="M191.782 55.0498H62.985C61.3785 55.0498 60.0762 56.353 60.0762 57.9606V66.2988C60.0762 67.9064 61.3785 69.2096 62.985 69.2096H191.782C193.388 69.2096 194.691 67.9064 194.691 66.2988V57.9606C194.691 56.353 193.388 55.0498 191.782 55.0498Z"
          fill="#0067E0"/>
    <path opacity="0.15"
          d="M208.65 74.2686H79.8536C78.2471 74.2686 76.9448 75.5718 76.9448 77.1793V85.5176C76.9448 87.1252 78.2471 88.4284 79.8536 88.4284H208.65C210.257 88.4284 211.559 87.1252 211.559 85.5176V77.1793C211.559 75.5718 210.257 74.2686 208.65 74.2686Z"
          fill="#0067E0"/>
    <g opacity="0.25">
        <path fill-rule="evenodd" clip-rule="evenodd"
              d="M101.297 151.873H121.36V171.867H101.297V151.873ZM151.34 202.032H156.456V207.07H151.34V202.032ZM141.505 202.024H146.622V206.823H136.389V197.008H141.341V192.031H146.379V182.112H151.496V186.989H156.37V192.026H151.496V197.064H141.501V202.019L141.505 202.024ZM126.316 191.953H131.268V186.915H126.476V181.878H131.268V176.84H126.394V181.878H121.273V176.84H126.308V161.879H131.424V176.836H136.376V181.873H141.25V176.836H146.366V181.873H141.501V186.911H136.385V196.83H131.424V206.832H126.308V191.953H126.316ZM151.253 176.831H156.37V181.869H151.253V176.831ZM111.287 176.831H116.404V181.869H111.287V176.831ZM101.297 176.831H106.413V181.869H101.297V176.831ZM126.316 151.873H131.433V156.911H126.316V151.873ZM101.215 186.989H121.278V206.983H101.215V186.989ZM106.089 191.849H116.404V202.132H106.089V191.849ZM136.307 151.873H156.37V171.867H136.307V151.873ZM141.185 156.733H151.5V167.016H141.185V156.733ZM106.167 156.733H116.482V167.016H106.167V156.733Z"
              fill="#0067E0"/>
    </g>
    <defs>
        <linearGradient id="paint0_linear_4273_11677" x1="131" y1="0" x2="131" y2="366.834"
                        gradientUnits="userSpaceOnUse">
            <stop stop-color="white"/>
            <stop offset="1" stop-color="#2EA9E1" stop-opacity="0.05"/>
        </linearGradient>
    </defs>
</svg>
