<svg width="25" height="25" viewBox="0 0 25 25" xmlns="http://www.w3.org/2000/svg">
    <g clip-path="url(#clip0_2781_11998)">
        <g clip-path="url(#clip1_2781_11998)">
            <path
                d="M9.35918 10.4273L9.38731 10.4203C10.7654 10.0758 12.1436 9.73125 13.5217 9.38672L14.5131 9.16172L15.2584 9.31641C16.742 9.68906 18.2256 10.0547 19.7022 10.4273C19.8217 10.4555 19.8498 10.4414 19.8287 10.3219C19.7022 9.52734 19.5826 8.73984 19.4631 7.94531C19.3436 7.15078 19.1607 6.35626 19.217 5.54766C19.224 5.4211 19.1889 5.39298 19.0623 5.39298C18.0568 5.40001 17.0584 5.39298 16.0529 5.40001C15.9475 5.40001 15.9123 5.36484 15.8912 5.26641C15.7576 4.725 15.617 4.19063 15.4904 3.64922C15.4623 3.53672 15.4131 3.51562 15.3147 3.51562C14.7732 3.52266 14.2389 3.52266 13.6975 3.51562C13.599 3.51562 13.5639 3.54376 13.5428 3.63516C13.4162 4.17657 13.2686 4.71094 13.142 5.25234C13.1139 5.36484 13.0717 5.39298 12.9592 5.39298C11.9607 5.38595 10.9623 5.39297 9.96387 5.38594C9.83731 5.38594 9.81621 5.42109 9.81621 5.54063C9.80918 5.85 9.84434 6.16641 9.79512 6.47579C9.59825 7.74141 9.4084 9.00703 9.21153 10.2656C9.17637 10.4695 9.17637 10.4695 9.35918 10.4273ZM17.3467 6.62345C17.8951 6.62345 18.3451 7.07345 18.3451 7.62188C18.3451 8.17031 17.9022 8.62031 17.3467 8.62031C16.7982 8.62031 16.3482 8.17734 16.3482 7.62188C16.3482 7.07345 16.7982 6.62345 17.3467 6.62345ZM14.5201 6.62345C15.0686 6.62345 15.5186 7.07345 15.5186 7.62188C15.5186 8.17031 15.0756 8.62031 14.5201 8.62031C13.9717 8.62031 13.5217 8.17734 13.5217 7.62188C13.5217 7.07345 13.9717 6.62345 14.5201 6.62345ZM11.6654 6.62345C12.2139 6.62345 12.6639 7.07345 12.6639 7.62188C12.6639 8.17031 12.2139 8.62031 11.6654 8.62031C11.117 8.62031 10.667 8.17734 10.667 7.62188C10.667 7.07345 11.117 6.62345 11.6654 6.62345Z" />
            <path
                d="M9.34531 17.4235C9.45781 17.6696 9.60546 17.8665 9.78124 18.0282C10.1117 18.2251 10.4703 18.3235 10.8289 18.3235C11.3 18.3165 11.7781 18.1548 12.1719 17.8173C12.2352 17.761 12.2984 17.7118 12.3547 17.6485C12.4602 17.543 12.5797 17.4868 12.7062 17.4798C12.8398 17.4798 12.9594 17.529 13.0719 17.6415C13.1492 17.7188 13.2336 17.7891 13.318 17.8595C13.6555 18.1407 14.0211 18.2884 14.443 18.3095L14.4851 18.3165H14.5414L14.5836 18.3095C15.0055 18.2813 15.3711 18.1407 15.7086 17.8595C15.793 17.7891 15.8773 17.7188 15.9547 17.6415C16.0672 17.529 16.1867 17.4727 16.3203 17.4798C16.4539 17.4798 16.5734 17.536 16.6719 17.6485C16.7281 17.7048 16.7914 17.761 16.8547 17.8173C17.2555 18.1548 17.7266 18.3165 18.1976 18.3235C18.5562 18.3235 18.9219 18.2251 19.2453 18.0282C19.4141 17.8595 19.5687 17.6696 19.6812 17.4235C20.4617 15.6587 21.207 13.8798 21.9734 12.1009C22.0227 11.9884 22.0226 11.9462 21.882 11.911C19.4562 11.3063 17.0305 10.7016 14.5977 10.0899H14.4078C11.982 10.7016 9.55624 11.3063 7.13048 11.911C6.98985 11.9462 6.98985 11.9884 7.03906 12.1009C7.81953 13.8798 8.56484 15.6587 9.34531 17.4235Z" />
            <path
                d="M27.7672 23.4L20.4546 18.5977L20.3422 18.5273L20.2156 18.5062C20.082 18.5062 19.9625 18.5625 19.857 18.675C19.8008 18.7312 19.7305 18.7875 19.6672 18.8437C19.2664 19.1812 18.7812 19.343 18.3031 19.35C17.8249 19.343 17.3398 19.1812 16.939 18.8437C16.8757 18.7875 16.8055 18.7383 16.7492 18.675C16.6438 18.5695 16.5241 18.5133 16.3906 18.5062C16.257 18.5062 16.1304 18.5555 16.0179 18.668C15.9406 18.7453 15.8491 18.8156 15.7648 18.8859C15.4202 19.1672 15.0477 19.3148 14.6188 19.3359L14.5695 19.343L14.5133 19.3359L14.457 19.343L14.4078 19.3359C13.9789 19.3078 13.6063 19.1672 13.2617 18.8859C13.1773 18.8156 13.093 18.7453 13.0085 18.668C12.896 18.5555 12.7695 18.4992 12.6359 18.5062C12.5023 18.5062 12.3828 18.5625 12.2773 18.675C12.2211 18.7312 12.1578 18.7875 12.0875 18.8437C11.6867 19.1812 11.2016 19.343 10.7164 19.35C10.2383 19.343 9.75313 19.1812 9.35235 18.8437C9.28907 18.7875 9.22571 18.7383 9.1625 18.675C9.05704 18.5695 8.9375 18.5133 8.80391 18.5062L8.67727 18.5273L8.56485 18.5977L1.25231 23.4C1.01325 23.5547 0.907779 23.85 0.992154 24.1172C1.0695 24.3844 1.32262 24.5742 1.60387 24.5742H27.3945C27.6758 24.5742 27.9289 24.3914 28.0063 24.1172C28.1117 23.843 27.9992 23.5547 27.7672 23.4ZM18.2328 21.5719C17.6281 21.5648 17.0094 21.3961 16.3977 21.0586L16.3132 21.0094L16.2289 21.0586C15.7156 21.3609 15.125 21.5297 14.5273 21.5508C13.9297 21.5227 13.3391 21.3539 12.8258 21.0586L12.7413 21.0094L12.657 21.0586C12.0452 21.3891 11.4266 21.5648 10.8219 21.5719C10.625 21.5719 10.4703 21.4172 10.4703 21.2203C10.4703 21.0234 10.632 20.8687 10.8219 20.8687H10.8429C11.3773 20.8547 11.8906 20.6578 12.3195 20.3062C12.3828 20.25 12.446 20.2008 12.5023 20.1445C12.5726 20.0672 12.657 20.032 12.7413 20.032C12.8327 20.032 12.9102 20.0672 12.9875 20.1445C13.0719 20.2289 13.1633 20.2992 13.2547 20.3766C13.5992 20.6578 13.9719 20.8266 14.3938 20.8758H14.6609C15.0828 20.8266 15.4555 20.6578 15.8 20.3766C15.8914 20.2992 15.9828 20.2289 16.0672 20.1445C16.1445 20.0672 16.2288 20.032 16.3132 20.032C16.4046 20.032 16.482 20.0742 16.5523 20.1445C16.6086 20.2008 16.6719 20.257 16.7352 20.3062C17.1641 20.6648 17.6773 20.8547 18.2117 20.8687H18.2328C18.4297 20.8687 18.5844 21.0305 18.5844 21.2203C18.5914 21.4102 18.4297 21.5719 18.2328 21.5719Z" />
        </g>
    </g>
    <defs>
        <clipPath id="clip0_2781_11998">
            <rect width="25" height="25" />
        </clipPath>
        <clipPath id="clip1_2781_11998">
            <rect width="28.9062" height="28.125" />
        </clipPath>
    </defs>
</svg>