<svg width="16" height="16" viewBox="0 0 16 16" fill="none" xmlns="http://www.w3.org/2000/svg">
<path fill-rule="evenodd" clip-rule="evenodd" d="M7.52201 1.28414e-06H8.47791C8.62042 -1.36279e-05 8.76062 -2.82797e-05 8.88063 0.00798705C9.01306 0.016831 9.16846 0.0375551 9.33118 0.10189C9.65849 0.231299 9.92777 0.474996 10.0891 0.7878C10.1693 0.94331 10.2054 1.09588 10.2274 1.22677C10.2473 1.34539 10.2612 1.4849 10.2754 1.62671L10.2772 1.64505C10.3083 1.95575 10.3278 2.14578 10.3521 2.28069C10.3539 2.29087 10.3557 2.30017 10.3574 2.30866C10.3646 2.30386 10.3725 2.29854 10.3809 2.29264C10.4935 2.21441 10.6417 2.09386 10.8834 1.89613L10.8976 1.88447C11.0079 1.79421 11.1164 1.70541 11.2144 1.63562C11.3225 1.55861 11.4559 1.47624 11.6225 1.42299C11.9578 1.31588 12.3205 1.33398 12.6435 1.47391C12.804 1.54348 12.9286 1.63871 13.0285 1.7261C13.119 1.8053 13.2182 1.90446 13.3189 2.00526L13.3319 2.01825L13.9948 2.6811C14.0956 2.78186 14.1947 2.88098 14.2739 2.9715C14.3613 3.07139 14.4565 3.19593 14.5261 3.35648C14.666 3.67943 14.6841 4.04216 14.577 4.37741C14.5237 4.5441 14.4414 4.6775 14.3644 4.78559C14.2946 4.88356 14.2058 4.99208 14.1155 5.10238L14.1038 5.11661C13.9061 5.35829 13.7856 5.50648 13.7073 5.61905C13.7014 5.62753 13.6961 5.63537 13.6913 5.64257C13.6998 5.64427 13.7091 5.64605 13.7193 5.64788C13.8542 5.67216 14.0442 5.6917 14.3549 5.72278L14.3733 5.72461C14.5151 5.73878 14.6546 5.75271 14.7732 5.77263C14.9041 5.79461 15.0567 5.8307 15.2122 5.91091C15.525 6.07224 15.7687 6.34151 15.8981 6.6688C15.9624 6.83152 15.9832 6.98694 15.992 7.11936C16 7.23939 16 7.3796 16 7.52212V8.47797C16 8.62046 16 8.76063 15.992 8.88062C15.9832 9.01301 15.9625 9.16838 15.8982 9.33107C15.7687 9.65846 15.525 9.92781 15.2121 10.0892C15.0566 10.1693 14.9041 10.2054 14.7732 10.2274C14.6546 10.2473 14.5151 10.2612 14.3733 10.2754L14.355 10.2772C14.0444 10.3083 13.8544 10.3278 13.7195 10.3521C13.7094 10.3539 13.7 10.3557 13.6916 10.3574C13.6964 10.3646 13.7017 10.3724 13.7076 10.3809C13.7858 10.4934 13.9063 10.6416 14.104 10.8832L14.1156 10.8975C14.2059 11.0077 14.2946 11.1161 14.3644 11.2141C14.4414 11.3221 14.5237 11.4555 14.577 11.6221C14.6841 11.9574 14.6661 12.3203 14.526 12.6434C14.4565 12.8039 14.3612 12.9284 14.2739 13.0282C14.1947 13.1187 14.0956 13.2178 13.9949 13.3185L13.319 13.9944C13.2182 14.0952 13.1191 14.1944 13.0285 14.2736C12.9286 14.361 12.8041 14.4562 12.6435 14.5258C12.3206 14.6657 11.9578 14.6838 11.6226 14.5767C11.4559 14.5234 11.3225 14.4411 11.2144 14.3641C11.1165 14.2943 11.008 14.2055 10.8977 14.1152L10.8865 14.1061L10.8834 14.1036C10.6417 13.9058 10.4935 13.7853 10.381 13.707C10.3725 13.7011 10.3647 13.6958 10.3575 13.691C10.3558 13.6995 10.354 13.7088 10.3521 13.719C10.3279 13.854 10.3083 14.044 10.2772 14.3548L10.2754 14.3731C10.2612 14.515 10.2473 14.6546 10.2274 14.7732C10.2054 14.9042 10.1693 15.0568 10.089 15.2124C9.92771 15.525 9.65852 15.7686 9.33134 15.898C9.16858 15.9624 9.01312 15.9832 8.88066 15.992C8.7606 16 8.62035 16 8.47779 16H7.52212C7.3796 16 7.23938 16 7.11936 15.992C6.98694 15.9832 6.83152 15.9624 6.6688 15.8981C6.34151 15.7687 6.07224 15.525 5.91091 15.2122C5.8307 15.0567 5.79461 14.9041 5.77263 14.7732C5.75271 14.6546 5.73878 14.5151 5.72461 14.3733L5.72278 14.3549C5.69171 14.0442 5.67216 13.8542 5.64788 13.7193C5.64605 13.7091 5.64427 13.6998 5.64257 13.6913C5.63537 13.6961 5.62753 13.7014 5.61905 13.7073C5.50673 13.7854 5.35894 13.9056 5.11822 14.1025C5.11768 14.103 5.11714 14.1034 5.11659 14.1039L5.10233 14.1155C4.99203 14.2058 4.88352 14.2946 4.78555 14.3644C4.67746 14.4414 4.54405 14.5238 4.37736 14.577C4.04212 14.6841 3.67941 14.666 3.35647 14.5261C3.19591 14.4565 3.07137 14.3613 2.97147 14.2739C2.88095 14.1947 2.78183 14.0956 2.68108 13.9948L2.01823 13.332L2.00518 13.3189C1.9044 13.2182 1.80525 13.119 1.72606 13.0285C1.63868 12.9286 1.54344 12.8041 1.47387 12.6435C1.33394 12.3206 1.31585 11.9579 1.42295 11.6226C1.4762 11.4559 1.55857 11.3225 1.63558 11.2144C1.70538 11.1164 1.79419 11.0079 1.88445 10.8976L1.89611 10.8834C2.09384 10.6417 2.2144 10.4935 2.29263 10.3809C2.29853 10.3725 2.30386 10.3646 2.30866 10.3574C2.30017 10.3557 2.29086 10.3539 2.28069 10.3521C2.14578 10.3278 1.95574 10.3083 1.64504 10.2772L1.6267 10.2754C1.48489 10.2612 1.34539 10.2473 1.22677 10.2274C1.09588 10.2054 0.943311 10.1693 0.787803 10.0891C0.474995 9.92777 0.231297 9.65848 0.101889 9.33118C0.0375549 9.16846 0.0168309 9.01305 0.00798696 8.88063C-2.82797e-05 8.76062 -1.36281e-05 8.62042 1.28392e-06 8.47791V7.52218C-1.36281e-05 7.37963 -2.83664e-05 7.23939 0.00799116 7.11934C0.0168398 6.98689 0.0375749 6.83144 0.101943 6.66869C0.231347 6.34149 0.474971 6.07228 0.787672 5.91096C0.943214 5.83072 1.09582 5.79462 1.22674 5.77264C1.3454 5.75271 1.48494 5.73877 1.62679 5.7246L1.64513 5.72277C1.64491 5.72279 1.64535 5.72275 1.64513 5.72277C1.95552 5.69173 2.1461 5.67213 2.28095 5.64786C2.29112 5.64602 2.30043 5.64425 2.30892 5.64255C2.30412 5.63534 2.29879 5.6275 2.29289 5.61901C2.21463 5.5064 2.09403 5.35816 1.89623 5.11641L1.88456 5.10214C1.79426 4.9918 1.70543 4.88325 1.63561 4.78524C1.55857 4.67711 1.47617 4.54364 1.42292 4.37689C1.31591 4.04175 1.334 3.67918 1.47382 3.35635C1.5434 3.19573 1.63866 3.07113 1.72608 2.9712C1.8053 2.88063 1.90449 2.78146 2.00531 2.68066C2.00966 2.67632 2.014 2.67197 2.01835 2.66762L2.66804 2.01794C2.67238 2.01359 2.67673 2.00924 2.68107 2.0049C2.78184 1.90411 2.88097 1.80496 2.9715 1.72576C3.0714 1.63838 3.19595 1.54314 3.35651 1.47357C3.67944 1.33365 4.04215 1.31556 4.3774 1.42265C4.5441 1.4759 4.67751 1.55828 4.78561 1.6353C4.88358 1.7051 4.9921 1.79391 5.10242 1.88419L5.11668 1.89586C5.35832 2.09357 5.50651 2.21412 5.61906 2.29235C5.62756 2.29825 5.6354 2.30358 5.64262 2.30839C5.64432 2.2999 5.64609 2.2906 5.64792 2.28042C5.67219 2.14555 5.69173 1.95557 5.72279 1.64495L5.72462 1.62663C5.73878 1.48486 5.75271 1.34538 5.77262 1.22679C5.79459 1.09594 5.83066 0.94341 5.91083 0.787936C6.07218 0.475023 6.34154 0.231247 6.66896 0.101834C6.83164 0.0375341 6.98701 0.0168217 7.11939 0.00798263C7.23937 -2.82797e-05 7.37954 -1.36279e-05 7.52201 1.28414e-06ZM11.8045 12.9778L11.8014 12.9753L11.7838 12.9608C11.5694 12.7854 11.3764 12.6275 11.2111 12.5126C11.0462 12.3981 10.8196 12.2601 10.5402 12.2225C10.0223 12.1529 9.50681 12.3664 9.18984 12.7819C9.01889 13.006 8.95614 13.2638 8.92059 13.4614C8.88492 13.6596 8.86012 13.9078 8.83257 14.1835L8.82991 14.21C8.81318 14.3774 8.80378 14.4676 8.7929 14.5324C8.79244 14.5351 8.79199 14.5377 8.79156 14.5401C8.7891 14.5403 8.78648 14.5405 8.7837 14.5407C8.71817 14.5451 8.62757 14.5455 8.45937 14.5455H7.54054C7.37239 14.5455 7.28181 14.5451 7.2163 14.5407C7.21352 14.5405 7.2109 14.5403 7.20843 14.5401C7.208 14.5377 7.20756 14.5351 7.2071 14.5324C7.19622 14.4676 7.18684 14.3775 7.1701 14.2102L7.16745 14.1836C7.1399 13.908 7.1151 13.6598 7.07943 13.4617C7.04388 13.2641 6.98112 13.0062 6.81016 12.7822C6.4932 12.3667 5.97774 12.1532 5.45984 12.2228C5.1805 12.2604 4.95381 12.3983 4.78895 12.5129C4.62359 12.6278 4.43061 12.7857 4.21619 12.9612L4.19552 12.9781C4.19295 12.9802 4.19039 12.9823 4.18786 12.9844C4.06259 13.0868 3.99397 13.1424 3.94155 13.1798C3.93929 13.1814 3.93714 13.1829 3.93511 13.1843C3.93324 13.1827 3.93125 13.181 3.92916 13.1791C3.87974 13.1359 3.81542 13.0721 3.69652 12.9532L3.04675 12.3034C2.92785 12.1845 2.86406 12.1202 2.82083 12.0708C2.819 12.0687 2.81728 12.0667 2.81567 12.0649C2.81709 12.0628 2.8186 12.0607 2.82022 12.0584C2.85832 12.0049 2.91538 11.9346 3.02186 11.8045L3.03878 11.7838C3.21422 11.5694 3.37213 11.3764 3.48705 11.211C3.60162 11.0462 3.73955 10.8195 3.77713 10.5402C3.8468 10.0223 3.63327 9.50678 3.21778 9.18982C2.9937 9.01887 2.73588 8.95612 2.5383 8.92056C2.34012 8.8849 2.092 8.8601 1.81632 8.83255L1.78977 8.8299C1.62247 8.81316 1.53238 8.80378 1.46762 8.7929C1.46488 8.79244 1.46229 8.792 1.45986 8.79156C1.45967 8.7891 1.45948 8.78648 1.4593 8.78371C1.45492 8.71819 1.45455 8.62762 1.45455 8.45947V7.54062C1.45455 7.37243 1.45492 7.28183 1.4593 7.2163C1.45949 7.21352 1.45967 7.2109 1.45986 7.20844C1.4623 7.208 1.46488 7.20756 1.46763 7.2071C1.53233 7.19623 1.62233 7.18685 1.78939 7.17014C1.78924 7.17016 1.78955 7.17013 1.78939 7.17014L1.81641 7.16744C2.09216 7.13988 2.34036 7.11508 2.53859 7.0794C2.73622 7.04383 2.99411 6.98105 3.21823 6.81003C3.63355 6.4931 3.847 5.97777 3.77743 5.45999C3.73988 5.18058 3.60192 4.95383 3.48732 4.78893C3.37237 4.62353 3.21441 4.43048 3.0389 4.216L3.02199 4.19533C2.91547 4.06514 2.85837 3.99476 2.82026 3.94126C2.81864 3.93899 2.81713 3.93684 2.81571 3.93482C2.81732 3.93294 2.81904 3.93096 2.82087 3.92886C2.86412 3.87943 2.92792 3.81509 3.04687 3.69614L3.69655 3.04646C3.81546 2.92755 3.87977 2.86377 3.92919 2.82054C3.93129 2.8187 3.93327 2.81699 3.93515 2.81538C3.93718 2.81679 3.93932 2.81831 3.94159 2.81993C3.99508 2.85804 4.06545 2.91512 4.19561 3.02162L4.21626 3.03851C4.43065 3.21394 4.6236 3.37184 4.78893 3.48674C4.95373 3.60128 5.18036 3.73921 5.45962 3.77682C5.97769 3.84659 6.49335 3.63299 6.81035 3.21733C6.98121 2.99328 7.04393 2.73553 7.07948 2.53801C7.11513 2.33988 7.13992 2.09183 7.16746 1.81624L7.17011 1.78968C7.18684 1.62242 7.19623 1.53235 7.20709 1.46762C7.20755 1.46488 7.208 1.46229 7.20843 1.45986C7.2109 1.45967 7.21351 1.45948 7.21629 1.4593C7.28178 1.45492 7.37234 1.45455 7.54043 1.45455H8.45947C8.62762 1.45455 8.71819 1.45492 8.78371 1.4593C8.78648 1.45948 8.7891 1.45967 8.79157 1.45986C8.792 1.46229 8.79244 1.46488 8.7929 1.46762C8.80378 1.53238 8.81316 1.62247 8.8299 1.78978L8.83255 1.81633C8.8601 2.092 8.8849 2.34012 8.92056 2.53831C8.95612 2.73588 9.01887 2.9937 9.18981 3.21778C9.50677 3.63328 10.0223 3.8468 10.5402 3.77713C10.8195 3.73955 11.0462 3.60163 11.211 3.48706C11.3764 3.37214 11.5694 3.21422 11.7838 3.03878L11.8044 3.02188C11.9346 2.91541 12.0049 2.85835 12.0584 2.82025C12.0607 2.81863 12.0628 2.81712 12.0648 2.8157C12.0667 2.81731 12.0687 2.81903 12.0708 2.82087C12.1202 2.86409 12.1845 2.92788 12.3034 3.04677L12.9532 3.69656C13.0721 3.81546 13.1359 3.87978 13.1791 3.92919C13.1809 3.93129 13.1827 3.93327 13.1843 3.93514C13.1829 3.93717 13.1813 3.93932 13.1797 3.94158C13.1416 3.99506 13.0846 4.0654 12.9781 4.19554L12.9612 4.2162C12.7857 4.43061 12.6278 4.62359 12.5129 4.78895C12.3983 4.9538 12.2604 5.18049 12.2228 5.45981C12.1532 5.97772 12.3667 6.49321 12.7822 6.81017C13.0062 6.98112 13.2641 7.04388 13.4617 7.07943C13.6598 7.1151 13.908 7.1399 14.1837 7.16745L14.2102 7.1701C14.3775 7.18683 14.4676 7.19622 14.5324 7.2071C14.5351 7.20756 14.5377 7.208 14.5401 7.20844C14.5403 7.2109 14.5405 7.21352 14.5407 7.21629C14.5451 7.28181 14.5455 7.37239 14.5455 7.54054V8.45955C14.5455 8.62766 14.5451 8.71821 14.5407 8.78371C14.5405 8.78648 14.5403 8.7891 14.5401 8.79156C14.5377 8.79199 14.5351 8.79245 14.5324 8.79291C14.4676 8.80378 14.3776 8.81316 14.2103 8.82989L14.1837 8.83254C13.9081 8.86009 13.6601 8.88488 13.462 8.92053C13.2644 8.95606 13.0067 9.01878 12.7827 9.18962C12.367 9.50663 12.1533 10.0223 12.2231 10.5405C12.2608 10.8197 12.3986 11.0463 12.5132 11.211C12.6281 11.3764 12.7859 11.5693 12.9613 11.7836L12.9782 11.8042C13.0846 11.9343 13.1417 12.0046 13.1798 12.0581C13.1814 12.0604 13.1829 12.0625 13.1843 12.0645C13.1827 12.0664 13.181 12.0684 13.1791 12.0705C13.1359 12.1199 13.0722 12.1842 12.9533 12.303L12.3034 12.9529C12.1845 13.0718 12.1202 13.1356 12.0708 13.1788C12.0687 13.1806 12.0667 13.1824 12.0649 13.184C12.0628 13.1826 12.0607 13.181 12.0584 13.1794C12.0049 13.1413 11.9346 13.0843 11.8045 12.9778ZM8 5.81818C6.79502 5.81818 5.81818 6.79502 5.81818 8C5.81818 9.20498 6.79502 10.1818 8 10.1818C9.20498 10.1818 10.1818 9.20498 10.1818 8C10.1818 6.79502 9.20498 5.81818 8 5.81818ZM4.36364 8C4.36364 5.99169 5.99169 4.36364 8 4.36364C10.0083 4.36364 11.6364 5.99169 11.6364 8C11.6364 10.0083 10.0083 11.6364 8 11.6364C5.99169 11.6364 4.36364 10.0083 4.36364 8ZM2.33584 5.6537L2.62918 6.03811L2.33584 5.6537Z" fill="#3F434A"/>
</svg>
