<svg width="17" height="22" viewBox="0 0 17 22" xmlns="http://www.w3.org/2000/svg">
    <path
        d="M12.0755 20.932H11.9817C11.4858 20.926 10.9899 20.7764 10.5744 20.4595C10.5074 20.4115 10.4404 20.3577 10.38 20.3039C10.2729 20.2022 10.1455 20.1484 10.0115 20.1484C9.87079 20.1484 9.74343 20.1962 9.62956 20.3039C9.54913 20.3757 9.46199 20.4415 9.36815 20.5133C9.01976 20.7764 8.63107 20.9141 8.18875 20.9379L8.14183 20.9439L8.09491 20.9379C7.65268 20.9141 7.27069 20.7764 6.91552 20.5133C6.82838 20.4475 6.74124 20.3817 6.65418 20.3039C6.54023 20.2022 6.41287 20.1484 6.27219 20.1484C6.13143 20.1484 6.01086 20.2022 5.90361 20.3039C5.84329 20.3577 5.77626 20.4115 5.70923 20.4595C5.29381 20.7764 4.79116 20.932 4.30201 20.932H4.21487C3.90662 20.932 3.65869 21.1534 3.65869 21.4285C3.65869 21.7036 3.90662 21.925 4.21487 21.925H4.30201C4.95874 21.9191 5.61547 21.7575 6.2789 21.4225C6.86189 21.7336 7.49851 21.8951 8.14183 21.9131C8.78515 21.8951 9.42847 21.7336 10.0048 21.4225C10.6616 21.7515 11.325 21.9191 11.9817 21.925H12.0755C12.3837 21.925 12.6318 21.7036 12.6318 21.4285C12.6318 21.1534 12.3837 20.932 12.0755 20.932Z" />
    <path
        d="M15.7347 18.6289C15.3058 18.5991 14.9372 18.4615 14.5955 18.2102C14.5083 18.1444 14.4213 18.0786 14.3341 18.0008C14.2202 17.8992 14.0929 17.8453 13.9521 17.8453C13.8114 17.8453 13.6908 17.8992 13.5836 18.0008C13.5232 18.0547 13.4562 18.1085 13.3893 18.1563C12.9738 18.4734 12.4711 18.6289 11.982 18.6289C11.486 18.6229 10.9902 18.4734 10.5747 18.1563C10.5076 18.1085 10.4407 18.0547 10.3804 18.0008C10.2731 17.8992 10.1458 17.8453 10.0118 17.8453C9.87102 17.8453 9.74375 17.8932 9.62979 18.0008C9.54936 18.0727 9.4623 18.1385 9.36846 18.2102C9.01999 18.4734 8.6313 18.611 8.18898 18.6349L8.14206 18.6409L8.09522 18.6349C7.65291 18.611 7.27092 18.4734 6.91574 18.2102C6.82861 18.1444 6.73485 18.0786 6.65441 18.0008C6.54046 17.8992 6.41319 17.8453 6.27242 17.8453C6.13175 17.8453 6.01109 17.8992 5.90384 18.0008C5.84352 18.0547 5.77657 18.1085 5.70954 18.1563C5.29404 18.4734 4.79148 18.6289 4.30224 18.6289C3.80639 18.6229 3.31045 18.4734 2.89494 18.1563C2.82791 18.1085 2.76097 18.0547 2.70064 18.0008C2.59339 17.8992 2.46612 17.8453 2.33206 17.8453C2.1913 17.8453 2.06402 17.8932 1.95008 18.0008C1.86966 18.0727 1.78255 18.1385 1.68872 18.2102C1.34696 18.4615 0.978388 18.5991 0.556207 18.6289C0.247944 18.6289 0 18.8503 0 19.1195C0 19.3946 0.234546 19.61 0.536106 19.61L0.589714 19.6041C1.18613 19.5681 1.78254 19.4186 2.32536 19.1255C2.98208 19.4545 3.64552 19.6219 4.30224 19.6279C4.95897 19.6219 5.6157 19.4604 6.27913 19.1255C6.86212 19.4365 7.49874 19.61 8.14206 19.6279C8.78547 19.61 9.42879 19.4425 10.0051 19.1255C10.6618 19.4545 11.3252 19.6219 11.982 19.6279C12.6387 19.6219 13.2954 19.4604 13.9588 19.1255C14.5016 19.4186 15.0981 19.5681 15.6945 19.6041L15.7548 19.61C16.0631 19.61 16.2909 19.3886 16.2909 19.1195C16.2909 18.8503 16.043 18.6289 15.7347 18.6289Z" />
    <path
        d="M3.00236 15.2193V16.9959C3.39775 17.2651 3.85339 17.4027 4.30911 17.4087C4.80496 17.4027 5.3009 17.2531 5.71641 16.9361C5.78335 16.8882 5.85038 16.8344 5.91071 16.7805C6.01796 16.6789 6.14523 16.625 6.27929 16.625C6.41997 16.625 6.54733 16.6729 6.66128 16.7805C6.74163 16.8523 6.82877 16.9181 6.92261 16.9899C7.27779 17.2531 7.65978 17.3907 8.10201 17.4146L8.14893 17.4206L8.19585 17.4146C8.63816 17.3907 9.02015 17.2531 9.37533 16.9899C9.46238 16.9241 9.54952 16.8583 9.63666 16.7805C9.75723 16.6789 9.87788 16.625 10.0186 16.625C10.1593 16.625 10.28 16.6789 10.3872 16.7805C10.4475 16.8344 10.5145 16.8882 10.5815 16.9361C10.997 17.2531 11.4996 17.4087 11.9888 17.4087C12.4445 17.4027 12.9002 17.2651 13.2956 16.9959V15.2193C14.0997 13.299 14.9106 11.3848 15.7214 9.46454C15.7549 9.38683 15.7348 9.36287 15.6545 9.33899C15.2054 9.19539 14.7698 9.04587 14.3209 8.90227C14.2203 8.8724 14.1935 8.83046 14.2002 8.74077C14.2069 7.9571 14.2002 7.17351 14.2002 6.39581C14.2002 6.09073 14.2002 5.78565 14.2002 5.48655C14.2002 5.41476 14.1868 5.37289 14.093 5.37888C13.9992 5.38486 13.9054 5.3669 13.8182 5.37289C13.7244 5.37887 13.7044 5.34896 13.7044 5.2712C13.7044 4.73282 13.7044 4.18846 13.7044 3.65008C13.7044 3.53044 13.7044 3.53043 13.5703 3.53043C12.2368 3.53043 10.8965 3.53043 9.55622 3.53043C9.46908 3.53043 9.43557 3.51249 9.44227 3.42874C9.44898 3.14161 9.44227 2.84849 9.44898 2.56136C9.44898 2.48957 9.42887 2.47761 9.34851 2.47761C8.57113 2.47761 7.79375 2.48359 7.01646 2.47761C6.92932 2.47761 6.91591 2.50154 6.91591 2.57332C6.92261 2.85448 6.91591 3.13562 6.92261 3.42276C6.92261 3.51249 6.8958 3.53043 6.79525 3.53043C5.49521 3.52445 4.19516 3.53044 2.89511 3.52446C2.80127 3.52446 2.77445 3.54839 2.77445 3.63214C2.78116 4.14659 2.77445 4.65505 2.78116 5.1695C2.78116 5.2353 2.76105 5.25924 2.6874 5.25924C2.58015 5.25924 2.4662 5.27718 2.35904 5.2712C2.25179 5.26521 2.23168 5.30111 2.23168 5.39083C2.23838 6.50349 2.23168 7.61015 2.23838 8.7228C2.23838 8.7946 2.21827 8.83046 2.13784 8.85443C1.63526 9.01592 1.13936 9.1834 0.643467 9.3449C0.556354 9.37485 0.542948 9.39873 0.576455 9.47652C1.38732 11.3847 2.19146 13.305 3.00236 15.2193ZM3.79306 6.46759C3.90031 6.46759 4.01426 6.44965 4.12142 6.45564C4.20186 6.45564 4.22197 6.43171 4.22197 6.35992C4.21527 5.88136 4.22197 5.39682 4.21527 4.91228C4.21527 4.81657 4.24878 4.79862 4.34933 4.79862C5.64267 4.8046 6.94272 4.79862 8.23607 4.79862H12.1362C12.2703 4.79862 12.2703 4.79862 12.2703 4.91826C12.2703 5.44467 12.2703 5.96511 12.2703 6.49153C12.2703 6.57527 12.2971 6.5992 12.3841 6.59322C12.4847 6.58724 12.5852 6.5992 12.6858 6.5992C12.7527 6.5992 12.7728 6.62313 12.7728 6.68294C12.7728 7.22135 12.7661 7.75974 12.7728 8.30405C12.7728 8.38184 12.746 8.38184 12.6791 8.35788C11.8816 8.09471 11.0841 7.83146 10.2867 7.5683C9.60985 7.34099 8.92631 7.11968 8.24947 6.89228C8.18244 6.86841 8.12212 6.86841 8.05509 6.89228C6.64117 7.36487 5.22047 7.83146 3.79976 8.29806C3.67249 8.33999 3.67249 8.33999 3.67249 8.22634C3.67249 7.67596 3.67249 7.12558 3.67249 6.58125C3.66579 6.49152 3.6993 6.46759 3.79306 6.46759Z" />
    <path
        d="M7.00937 2.12462C7.39806 2.12462 7.78675 2.12462 8.17536 2.12462C8.56405 2.12462 8.95944 2.12462 9.34813 2.12462C9.41516 2.12462 9.44198 2.11265 9.44198 2.04685C9.43527 1.72382 9.44198 1.39482 9.44198 1.07179C9.44198 1.01795 9.42857 1 9.36154 1C8.57075 1 7.78675 1 7.00267 1C6.93564 1 6.91553 1.01795 6.91553 1.07777C6.91553 1.4008 6.91553 1.72382 6.91553 2.04685C6.91553 2.10667 6.93564 2.12462 7.00937 2.12462Z" />
    <path
        d="M5.34762 6.50347C7.26418 6.50347 9.18073 6.50347 11.0973 6.50347C11.1777 6.50347 11.1911 6.47356 11.1911 6.41374C11.1844 6.10268 11.1844 5.78563 11.1911 5.47457C11.1911 5.38484 11.1576 5.37287 11.0705 5.37287C10.1189 5.37287 9.17403 5.37287 8.22246 5.37287C7.26418 5.37287 6.3126 5.37287 5.35424 5.37287C5.26718 5.37287 5.24037 5.39082 5.24707 5.46859C5.25378 5.78563 5.25378 6.10268 5.24707 6.41374C5.25378 6.47954 5.26718 6.50347 5.34762 6.50347Z" />
</svg>