<svg width="20" height="20" viewBox="0 0 20 20" fill="none" xmlns="http://www.w3.org/2000/svg">
<g id="Status_list">
<circle id="Ellipse 103" cx="14.1667" cy="6.66659" r="3.33333" fill="#8A9099"/>
<path id="Subtract" fill-rule="evenodd" clip-rule="evenodd" d="M12.8333 6.66659C12.8333 5.93021 13.4302 5.33325 14.1666 5.33325C14.903 5.33325 15.5 5.93021 15.5 6.66659C15.5 6.72303 15.4965 6.77865 15.4896 6.83325H12.8436C12.8368 6.77865 12.8333 6.72303 12.8333 6.66659ZM8.83585 6.83325C8.83415 6.7779 8.83329 6.72234 8.83329 6.66659C8.83329 6.02242 8.94749 5.40493 9.15675 4.83325H4.16663C3.61434 4.83325 3.16663 5.28097 3.16663 5.83325C3.16663 6.38554 3.61434 6.83325 4.16663 6.83325H8.83585ZM9.36945 8.99992C9.75866 9.79863 10.3415 10.4856 11.0568 10.9999H4.16663C3.61434 10.9999 3.16663 10.5522 3.16663 9.99992C3.16663 9.44763 3.61434 8.99992 4.16663 8.99992H9.36945ZM4.16663 13.1666C3.61434 13.1666 3.16663 13.6143 3.16663 14.1666C3.16663 14.7189 3.61434 15.1666 4.16663 15.1666H15.8333C16.3856 15.1666 16.8333 14.7189 16.8333 14.1666C16.8333 13.6143 16.3856 13.1666 15.8333 13.1666H4.16663Z" fill="#8A9099"/>
</g>
</svg>
