<svg width="29" height="28" viewBox="0 0 29 28" xmlns="http://www.w3.org/2000/svg">
    <path d="M10.7124 22.939L10.522 23.821H18.9586L18.7611 22.939H10.7124Z" />
    <path
        d="M10.698 18.8439V17.5279C10.698 17.4369 10.7686 17.3669 10.8673 17.3669C10.959 17.3669 11.0296 17.4369 11.0296 17.5279V18.8439C11.0296 18.9349 10.959 19.0049 10.8673 19.0049C10.7686 19.0049 10.698 18.9349 10.698 18.8439ZM11.9889 18.8439V17.5279C11.9889 17.4369 12.0665 17.3669 12.1582 17.3669C12.2499 17.3669 12.3205 17.4369 12.3205 17.5279V18.8439C12.3205 18.9349 12.2499 19.0049 12.1582 19.0049C12.0595 19.0049 11.9889 18.9349 11.9889 18.8439ZM13.2798 18.8439V17.5279C13.2798 17.4369 13.3504 17.3669 13.4491 17.3669C13.5408 17.3669 13.6114 17.4369 13.6114 17.5279V18.8439C13.6114 18.9349 13.5408 19.0049 13.4491 19.0049C13.3574 19.0049 13.2798 18.9349 13.2798 18.8439ZM14.5495 18.8439V17.5279C14.5495 17.4369 14.6201 17.3669 14.7188 17.3669C14.8105 17.3669 14.8811 17.4369 14.8811 17.5279V18.8439C14.8811 18.9349 14.8105 19.0049 14.7188 19.0049C14.6201 19.0049 14.5495 18.9349 14.5495 18.8439ZM15.8616 18.8439V17.5279C15.8616 17.4369 15.9392 17.3669 16.0309 17.3669C16.1226 17.3669 16.1931 17.4369 16.1931 17.5279V18.8439C16.1931 18.9349 16.1226 19.0049 16.0309 19.0049C15.9321 19.0049 15.8616 18.9349 15.8616 18.8439ZM17.1525 18.8439V17.5279C17.1525 17.4369 17.223 17.3669 17.3218 17.3669C17.4135 17.3669 17.484 17.4369 17.484 17.5279V18.8439C17.484 18.9349 17.4135 19.0049 17.3218 19.0049C17.2301 19.0049 17.1525 18.9349 17.1525 18.8439ZM18.4222 18.8439V17.5279C18.4222 17.4369 18.4928 17.3669 18.5915 17.3669C18.6832 17.3669 18.7538 17.4369 18.7538 17.5279V18.8439C18.7538 18.9349 18.6762 19.0049 18.5915 19.0049C18.4928 19.0049 18.4222 18.9349 18.4222 18.8439ZM14.7118 16.2399C12.7084 16.2399 10.7121 16.2399 8.70879 16.2399C8.61708 16.2399 8.58887 16.2609 8.58887 16.3519C8.59592 16.9259 8.58887 17.4999 8.58887 18.0739C8.58887 18.1369 8.61003 18.1929 8.6453 18.2489C9.00506 18.7669 9.35776 19.2779 9.71046 19.7959C9.75279 19.8589 9.79511 19.8799 9.87271 19.8799C13.0964 19.8729 16.3201 19.8729 19.5438 19.8659C19.6144 19.8659 19.6567 19.8449 19.699 19.7889C20.0517 19.2639 20.4115 18.7389 20.7712 18.2209C20.8135 18.1649 20.8277 18.1089 20.8277 18.0389C20.8277 17.4859 20.8206 16.9259 20.8277 16.3729C20.8277 16.2679 20.7994 16.2399 20.6936 16.2399C18.7044 16.2399 16.7081 16.2399 14.7118 16.2399Z" />
    <path d="M11.0507 21.266L10.9097 21.931H18.5704L18.4222 21.266H11.0507Z" />
    <path d="M9.4072 20.468L6.29639 24.626H8.4549L10.5429 20.468H9.4072Z" />
    <path d="M18.9443 20.468L20.983 24.626H23.1344L20.08 20.468H18.9443Z" />
    <path
        d="M10.3527 13.769C10.3527 13.293 10.7407 12.908 11.2204 12.908C11.7001 12.908 12.0881 13.293 12.0881 13.769C12.0881 14.245 11.7001 14.63 11.2204 14.63C10.7407 14.623 10.3527 14.245 10.3527 13.769ZM17.2446 13.769C17.2446 13.293 17.6325 12.908 18.1122 12.908C18.5919 12.908 18.9799 13.293 18.9799 13.769C18.9799 14.245 18.5919 14.63 18.1122 14.63C17.6325 14.623 17.2446 14.245 17.2446 13.769ZM9.40758 10.038V8.31601C9.40758 8.02901 9.64029 7.79801 9.9295 7.79801H13.7881C14.0773 7.79801 14.3101 8.02901 14.3101 8.31601V10.038C14.3101 10.325 14.0773 10.556 13.7881 10.556H9.9295C9.64029 10.556 9.40758 10.325 9.40758 10.038ZM15.079 10.038V8.31601C15.079 8.02901 15.3118 7.79801 15.601 7.79801H19.4596C19.7488 7.79801 19.9815 8.02901 19.9815 8.31601V10.038C19.9815 10.325 19.7488 10.556 19.4596 10.556H15.601C15.3118 10.556 15.079 10.325 15.079 10.038ZM20.6305 6.82499C18.6624 6.83199 16.6944 6.82499 14.7334 6.82499C12.7653 6.82499 10.7902 6.82499 8.82209 6.82499C8.72334 6.82499 8.68799 6.83899 8.68799 6.95099C8.69504 9.80701 8.69504 12.663 8.68799 15.519C8.68799 15.617 8.70915 15.638 8.80791 15.638C12.7511 15.638 16.6944 15.638 20.6376 15.638C20.7434 15.638 20.7575 15.61 20.7575 15.512C20.7575 12.656 20.7575 9.80001 20.7575 6.93698C20.7504 6.85998 20.7293 6.82499 20.6305 6.82499Z" />
    <path
        d="M13.9218 4.09498C13.9218 3.67498 14.2675 3.33199 14.6907 3.33199C15.114 3.33199 15.4596 3.67498 15.4596 4.09498C15.4596 4.51498 15.114 4.85798 14.6907 4.85798C14.2675 4.85798 13.9218 4.51498 13.9218 4.09498ZM8.68066 6.24398H20.7501C20.7501 5.73298 18.2742 2.79999 14.7119 2.79999C11.1496 2.79999 8.68066 5.73298 8.68066 6.24398Z" />
</svg>