<svg width="24" height="20" viewBox="0 0 24 20" fill="none" xmlns="http://www.w3.org/2000/svg">
    <path fill-rule="evenodd" clip-rule="evenodd"
          d="M7.81747 5.09034C8.9019 3.14368 11.0754 2.24564 13.0954 2.45358C15.0819 2.65807 16.7208 3.89411 16.9954 6.09094C17.0657 6.6539 17.5443 7.07637 18.1116 7.0764C20.1737 7.07653 21.4737 8.66305 21.7127 10.7336C21.9476 12.7696 21.0814 14.7187 19.3259 15.3987L16.7019 15.3989L16.1511 15.399L16.0326 15.399L16.0054 15.3991L15.9988 15.3991H15.9972H15.9968H15.9967H15.9967C15.3754 15.3994 14.8719 15.9033 14.8722 16.5246C14.8725 17.1459 15.3765 17.6494 15.9978 17.6491H15.9978H15.9979H15.9983H15.9999L16.0063 17.6491L16.0335 17.649L16.1517 17.649L16.7022 17.6489L19.5213 17.6487C19.6422 17.6487 19.7624 17.6292 19.8771 17.591C23.0789 16.5237 24.2671 13.2426 23.9478 10.4756C23.6549 7.93781 22.0294 5.34879 19.0526 4.89598C18.303 2.03821 15.8737 0.477688 13.3258 0.215411C10.857 -0.0387301 8.12037 0.896826 6.42928 3.11331C5.07652 2.70153 3.74949 3.17701 2.88387 4.08479C2.0437 4.96588 1.59771 6.29295 1.92541 7.61956C0.382349 8.84499 -0.144919 10.8386 0.0331004 12.6073C0.240368 14.6667 1.44241 16.852 3.6595 17.591C3.77421 17.6292 3.89434 17.6487 4.01525 17.6487L6.83437 17.6489L7.38488 17.649L7.50318 17.649L7.53031 17.6491L7.53677 17.6491H7.53834H7.53873H7.53882H7.53884C8.16017 17.6494 8.66409 17.1459 8.66439 16.5246C8.66469 15.9033 8.16125 15.3994 7.53992 15.3991H7.53989H7.53979H7.53939H7.53779L7.53126 15.3991L7.50402 15.399L7.38553 15.399L6.83473 15.3989L4.21616 15.3987C3.1728 14.968 2.41373 13.7923 2.27179 12.382C2.12438 10.9174 2.68102 9.63003 3.80498 9.08018C4.08509 8.94314 4.29576 8.69599 4.3867 8.39771C4.47764 8.09943 4.4407 7.77678 4.28468 7.50678C3.90229 6.84499 4.06018 6.11158 4.51222 5.63752C4.93414 5.19506 5.54656 5.03588 6.21034 5.47871C6.47155 5.65298 6.79371 5.71014 7.09893 5.63638C7.40415 5.56262 7.66466 5.36466 7.81747 5.09034ZM12.5639 7.97545L11.7684 7.17995L10.9729 7.97545L7.4488 11.4996C7.00946 11.9389 7.00946 12.6512 7.4488 13.0905C7.88814 13.5299 8.60045 13.5299 9.03979 13.0905L10.6434 11.4869V18.6384C10.6434 19.2598 11.1471 19.7634 11.7684 19.7634C12.3897 19.7634 12.8934 19.2598 12.8934 18.6384V11.4869L14.497 13.0905C14.9364 13.5299 15.6487 13.5299 16.088 13.0905C16.5273 12.6512 16.5273 11.9389 16.088 11.4996L12.5639 7.97545Z"
          fill="#8A9099"/>
</svg>