<svg width="20" height="16" viewBox="0 0 14 18" fill="none" xmlns="http://www.w3.org/2000/svg">
<path id="Vector" d="M7.16671 3.66666L14.6667 3.66666M1.33337 10.3333L9.66671 10.3333M9.66671 10.3333C9.66671 11.714 10.786 12.8333 12.1667 12.8333C13.5474 12.8333 14.6667 11.714 14.6667 10.3333C14.6667 8.95262 13.5474 7.83333 12.1667 7.83333C10.786 7.83333 9.66671 8.95262 9.66671 10.3333ZM3.83337 6.16666C2.45266 6.16666 1.33337 5.04738 1.33337 3.66666C1.33337 2.28595 2.45266 1.16666 3.83337 1.16666C5.21409 1.16666 6.33337 2.28595 6.33337 3.66666C6.33337 5.04738 5.21409 6.16666 3.83337 6.16666Z" stroke="#8A9099" stroke-width="2" stroke-linecap="round"/>
</svg>
